<svg width="72" height="72" viewBox="0 0 72 72" fill="none" xmlns="http://www.w3.org/2000/svg">
<path d="M30.5161 14.0645H41.4839M30.5161 19.5484H33.8065M30.5161 23.9355H33.8065M30.5161 28.3226H33.8065M30.5161 32.7097H33.8065M30.5161 37.0968H33.8065M30.5161 41.4839H33.8065M30.5161 45.871H33.8065M30.5161 50.2581H33.8065M30.5161 54.6452H33.8065M54.6452 7.48387C63.891 13.56 70 24.111 70 36C70 50.5323 60.8858 62.9368 48.0645 67.8065M23.9355 67.8065C11.1142 62.9368 2 50.5323 2 36C2 24.111 8.10903 13.56 17.3548 7.48387M3.09677 28.3226H27.2258M3.09677 43.6774H27.2258M44.7742 28.3226H68.9032M44.7742 43.6774H68.9032M27.2258 18.4516C21.7419 18.4516 14.0645 14.0645 12.9677 10.9277M44.7742 18.4516C50.2581 18.4516 57.9355 13.911 59.0323 10.7742M27.2258 53.5484C21.7419 53.5484 14.0645 57.9355 12.9677 61.0723M44.7742 53.5484C50.2581 53.5484 57.9355 58.089 59.0323 61.2258M25.0323 61.2258C20.6452 56.8387 15.1613 49.1613 15.1613 36C15.1613 22.8387 19.5484 15.1613 23.9355 10.7742M45.871 61.2258C50.2581 56.8387 55.7419 49.1613 55.7419 36C55.7419 22.8387 51.3548 15.1613 46.9677 10.7742M30.5161 64.5161C30.5161 67.5432 32.9729 70 36 70C39.0271 70 41.4839 67.5432 41.4839 64.5161V6.3871H30.5161V64.5161ZM44.7742 5.29032C44.7742 5.89355 44.2806 6.3871 43.6774 6.3871H28.3226C27.7194 6.3871 27.2258 5.89355 27.2258 5.29032V3.09677C27.2258 2.49355 27.7194 2 28.3226 2H43.6774C44.2806 2 44.7742 2.49355 44.7742 3.09677V5.29032Z" stroke="white" stroke-width="3" stroke-miterlimit="10" stroke-linejoin="round"/>
</svg>
