<svg width="424" height="636" viewBox="0 0 424 636" fill="none" xmlns="http://www.w3.org/2000/svg">
<g opacity="0.15" clip-path="url(#clip0_4979_4920)">
<g opacity="0.12">
<path opacity="0.12" d="M27.0315 193.029C31.4992 193.029 35.1449 189.395 35.1449 184.914C35.1449 180.446 31.5112 176.799 27.0315 176.799C22.5637 176.799 18.918 180.434 18.918 184.914C18.9299 189.395 22.5637 193.029 27.0315 193.029ZM27.0315 179.373C30.0934 179.373 32.5834 181.864 32.5834 184.926C32.5834 187.989 30.0934 190.479 27.0315 190.479C23.9695 190.479 21.4795 187.989 21.4795 184.926C21.4795 181.864 23.9696 179.373 27.0315 179.373Z" fill="#00305B"/>
</g>
<g opacity="0.12">
<path opacity="0.12" d="M205.481 551.691C209.948 551.691 213.594 548.057 213.594 543.576C213.594 539.096 209.96 535.461 205.481 535.461C201.013 535.461 197.367 539.096 197.367 543.576C197.367 548.057 201.001 551.691 205.481 551.691ZM205.481 538.023C208.543 538.023 211.033 540.514 211.033 543.576C211.033 546.639 208.543 549.129 205.481 549.129C202.419 549.129 199.929 546.639 199.929 543.576C199.929 540.514 202.419 538.023 205.481 538.023Z" fill="#00305B"/>
</g>
<g opacity="0.12">
<path opacity="0.12" d="M179.318 83.291C197.01 83.291 211.403 68.8959 211.403 51.1999C211.403 33.5039 197.01 19.1088 179.318 19.1088C161.626 19.1088 147.233 33.5039 147.233 51.1999C147.233 68.8959 161.626 83.291 179.318 83.291ZM179.318 29.2378C191.423 29.2378 201.276 39.0928 201.276 51.1999C201.276 63.3071 191.423 73.162 179.318 73.162C167.213 73.162 157.36 63.3071 157.36 51.1999C157.36 39.0928 167.213 29.2378 179.318 29.2378Z" fill="#00305B"/>
</g>
<path d="M410.819 392.045C410.819 392.378 411.093 392.652 411.427 392.652C411.761 392.652 412.035 392.378 412.035 392.045C412.035 391.711 411.761 391.437 411.427 391.437C411.081 391.437 410.819 391.711 410.819 392.045Z" fill="white"/>
<path d="M396.761 392.045C396.761 392.378 397.035 392.652 397.368 392.652C397.702 392.652 397.976 392.378 397.976 392.045C397.976 391.711 397.702 391.437 397.368 391.437C397.035 391.437 396.761 391.711 396.761 392.045Z" fill="white"/>
<path d="M410.819 404.701C410.819 405.034 411.093 405.309 411.427 405.309C411.761 405.309 412.035 405.034 412.035 404.701C412.035 404.367 411.761 404.093 411.427 404.093C411.081 404.105 410.819 404.367 410.819 404.701Z" fill="white"/>
<path d="M396.761 404.701C396.761 405.034 397.035 405.309 397.368 405.309C397.702 405.309 397.976 405.034 397.976 404.701C397.976 404.367 397.702 404.093 397.368 404.093C397.035 404.105 396.761 404.367 396.761 404.701Z" fill="white"/>
<path d="M410.819 415.64C410.819 415.974 411.093 416.248 411.427 416.248C411.761 416.248 412.035 415.974 412.035 415.64C412.035 415.307 411.761 415.033 411.427 415.033C411.081 415.033 410.819 415.307 410.819 415.64Z" fill="white"/>
<path d="M396.761 415.64C396.761 415.974 397.035 416.248 397.368 416.248C397.702 416.248 397.976 415.974 397.976 415.64C397.976 415.307 397.702 415.033 397.368 415.033C397.035 415.033 396.761 415.307 396.761 415.64Z" fill="white"/>
<path d="M410.819 428.295C410.819 428.628 411.093 428.902 411.427 428.902C411.761 428.902 412.035 428.628 412.035 428.295C412.035 427.961 411.761 427.687 411.427 427.687C411.081 427.699 410.819 427.961 410.819 428.295Z" fill="white"/>
<path d="M396.761 428.295C396.761 428.628 397.035 428.902 397.368 428.902C397.702 428.902 397.976 428.628 397.976 428.295C397.976 427.961 397.702 427.687 397.368 427.687C397.035 427.699 396.761 427.961 396.761 428.295Z" fill="white"/>
<path d="M410.819 440.963C410.819 441.296 411.093 441.57 411.427 441.57C411.761 441.57 412.035 441.296 412.035 440.963C412.035 440.629 411.761 440.355 411.427 440.355C411.081 440.355 410.819 440.629 410.819 440.963Z" fill="white"/>
<path d="M396.761 440.963C396.761 441.296 397.035 441.57 397.368 441.57C397.702 441.57 397.976 441.296 397.976 440.963C397.976 440.629 397.702 440.355 397.368 440.355C397.035 440.355 396.761 440.629 396.761 440.963Z" fill="white"/>
<path d="M410.819 453.619C410.819 453.952 411.093 454.227 411.427 454.227C411.761 454.227 412.035 453.952 412.035 453.619C412.035 453.285 411.761 453.011 411.427 453.011C411.081 453.011 410.819 453.285 410.819 453.619Z" fill="white"/>
<path d="M396.761 453.619C396.761 453.952 397.035 454.227 397.368 454.227C397.702 454.227 397.976 453.952 397.976 453.619C397.976 453.285 397.702 453.011 397.368 453.011C397.035 453.011 396.761 453.285 396.761 453.619Z" fill="white"/>
<path d="M410.819 464.556C410.819 464.89 411.093 465.164 411.427 465.164C411.761 465.164 412.035 464.89 412.035 464.556C412.035 464.223 411.761 463.949 411.427 463.949C411.081 463.949 410.819 464.223 410.819 464.556Z" fill="white"/>
<path d="M396.761 464.556C396.761 464.89 397.035 465.164 397.368 465.164C397.702 465.164 397.976 464.89 397.976 464.556C397.976 464.223 397.702 463.949 397.368 463.949C397.035 463.949 396.761 464.223 396.761 464.556Z" fill="white"/>
<path d="M410.819 477.213C410.819 477.546 411.093 477.82 411.427 477.82C411.761 477.82 412.035 477.546 412.035 477.213C412.035 476.879 411.761 476.605 411.427 476.605C411.081 476.605 410.819 476.879 410.819 477.213Z" fill="white"/>
<path d="M396.761 477.213C396.761 477.546 397.035 477.82 397.368 477.82C397.702 477.82 397.976 477.546 397.976 477.213C397.976 476.879 397.702 476.605 397.368 476.605C397.035 476.605 396.761 476.879 396.761 477.213Z" fill="white"/>
<path d="M5.1213 6.013C5.52269 6.013 5.84808 6.33843 5.84808 6.7399C5.84808 7.14136 5.52269 7.4668 5.1213 7.4668C4.71992 7.4668 4.39453 7.14136 4.39453 6.7399C4.39453 6.33843 4.71992 6.013 5.1213 6.013Z" fill="white"/>
<path d="M5.1213 22.7671C5.52269 22.7671 5.84807 23.0925 5.84807 23.4939C5.84807 23.8953 5.52269 24.2207 5.1213 24.2207C4.71992 24.2207 4.39453 23.8953 4.39453 23.4939C4.39453 23.0925 4.71992 22.7671 5.1213 22.7671Z" fill="white"/>
<path d="M5.1213 39.509C5.52269 39.509 5.84808 39.8345 5.84808 40.2359C5.84808 40.6374 5.52269 40.9629 5.1213 40.9629C4.71992 40.9629 4.39453 40.6374 4.39453 40.2359C4.39453 39.8345 4.71992 39.509 5.1213 39.509Z" fill="white"/>
<path d="M5.1213 56.2513C5.52269 56.2513 5.84808 56.5768 5.84807 56.9782C5.84807 57.3797 5.52269 57.7051 5.1213 57.7051C4.71992 57.7051 4.39453 57.3797 4.39453 56.9782C4.39453 56.5768 4.71992 56.2513 5.1213 56.2513Z" fill="white"/>
<path d="M5.12143 74.4473C5.5146 74.4473 5.84819 74.1256 5.84819 73.7324C5.84819 73.3392 5.52651 73.0056 5.12143 73.0056C4.72826 73.0056 4.40657 73.3273 4.40657 73.7324C4.39466 74.1256 4.71635 74.4473 5.12143 74.4473Z" fill="white"/>
<path d="M5.12142 107.934C5.51459 107.934 5.84818 107.612 5.84818 107.207C5.84818 106.814 5.5265 106.492 5.12142 106.492C4.72826 106.492 4.40657 106.814 4.40657 107.207C4.39466 107.612 4.71634 107.934 5.12142 107.934Z" fill="white"/>
<path d="M5.12129 123.234C5.52267 123.234 5.84805 123.559 5.84805 123.961C5.84805 124.362 5.52267 124.688 5.12129 124.688C4.71991 124.688 4.39453 124.362 4.39453 123.961C4.39453 123.559 4.71991 123.234 5.12129 123.234Z" fill="white"/>
<path d="M5.1213 173.474C5.52268 173.474 5.84806 173.799 5.84806 174.201C5.84806 174.602 5.52268 174.928 5.1213 174.928C4.71992 174.928 4.39453 174.602 4.39453 174.201C4.39453 173.799 4.71992 173.474 5.1213 173.474Z" fill="white"/>
<path d="M5.1213 190.216C5.52268 190.216 5.84806 190.542 5.84806 190.943C5.84806 191.345 5.52268 191.67 5.1213 191.67C4.71992 191.67 4.39453 191.345 4.39453 190.943C4.39453 190.542 4.71992 190.216 5.1213 190.216Z" fill="white"/>
<path d="M20.2043 6.01111C20.6057 6.01111 20.9311 6.33653 20.9311 6.73798C20.9311 7.13942 20.6057 7.46484 20.2043 7.46484C19.8029 7.46484 19.4775 7.13942 19.4775 6.73798C19.4775 6.33653 19.8029 6.01111 20.2043 6.01111Z" fill="white"/>
<path d="M20.2043 22.767C20.6057 22.767 20.9311 23.0924 20.9311 23.4939C20.9311 23.8953 20.6057 24.2207 20.2043 24.2207C19.8029 24.2207 19.4775 23.8953 19.4775 23.4939C19.4775 23.0924 19.8029 22.767 20.2043 22.767Z" fill="white"/>
<path d="M20.2043 39.5089C20.6057 39.5089 20.9311 39.8343 20.9311 40.2358C20.9311 40.6373 20.6057 40.9629 20.2043 40.9629C19.8029 40.9629 19.4775 40.6373 19.4775 40.2358C19.4775 39.8343 19.8029 39.5089 20.2043 39.5089Z" fill="white"/>
<path d="M20.2043 56.2512C20.6057 56.2512 20.9311 56.5767 20.9311 56.9782C20.9311 57.3796 20.6057 57.7051 20.2043 57.7051C19.8029 57.7051 19.4775 57.3796 19.4775 56.9782C19.4775 56.5767 19.8029 56.2512 20.2043 56.2512Z" fill="white"/>
<path d="M20.2044 74.4473C20.5976 74.4473 20.9193 74.1256 20.9193 73.7325C20.9193 73.3394 20.5976 73.0057 20.2044 73.0057C19.8112 73.0057 19.4896 73.3275 19.4896 73.7325C19.4777 74.1256 19.7993 74.4473 20.2044 74.4473Z" fill="white"/>
<path d="M20.2043 89.7358C20.6057 89.7358 20.931 90.0612 20.931 90.4626C20.931 90.864 20.6057 91.1895 20.2043 91.1895C19.8029 91.1895 19.4775 90.864 19.4775 90.4626C19.4775 90.0612 19.8029 89.7358 20.2043 89.7358Z" fill="white"/>
<path d="M20.2044 107.934C20.5976 107.934 20.9192 107.612 20.9192 107.207C20.9192 106.814 20.5976 106.492 20.2044 106.492C19.8112 106.492 19.4896 106.814 19.4896 107.207C19.4777 107.612 19.7993 107.934 20.2044 107.934Z" fill="white"/>
<path d="M20.2043 123.234C20.6057 123.234 20.931 123.559 20.931 123.961C20.931 124.362 20.6057 124.688 20.2043 124.688C19.8029 124.688 19.4775 124.362 19.4775 123.961C19.4775 123.559 19.8029 123.234 20.2043 123.234Z" fill="white"/>
<path d="M20.2043 173.474C20.6057 173.474 20.931 173.799 20.931 174.201C20.931 174.602 20.6057 174.928 20.2043 174.928C19.8029 174.928 19.4775 174.602 19.4775 174.201C19.4775 173.799 19.8029 173.474 20.2043 173.474Z" fill="white"/>
<path d="M20.2043 190.216C20.6057 190.216 20.9311 190.542 20.9311 190.943C20.9311 191.345 20.6057 191.67 20.2043 191.67C19.8029 191.67 19.4775 191.345 19.4775 190.943C19.4775 190.542 19.8029 190.216 20.2043 190.216Z" fill="white"/>
<path d="M33.2268 6.01111C33.6281 6.01111 33.9535 6.33653 33.9535 6.73798C33.9535 7.13942 33.6281 7.46484 33.2268 7.46484C32.8254 7.46484 32.5 7.13942 32.5 6.73798C32.5 6.33653 32.8254 6.01111 33.2268 6.01111Z" fill="white"/>
<path d="M33.2268 22.7652C33.6281 22.7652 33.9535 23.0906 33.9535 23.492C33.9535 23.8934 33.6281 24.2188 33.2268 24.2188C32.8254 24.2188 32.5 23.8934 32.5 23.492C32.5 23.0906 32.8254 22.7652 33.2268 22.7652Z" fill="white"/>
<path d="M33.2268 39.5089C33.6281 39.5089 33.9535 39.8343 33.9535 40.2358C33.9535 40.6373 33.6281 40.9629 33.2268 40.9629C32.8254 40.9629 32.5 40.6373 32.5 40.2358C32.5 39.8343 32.8254 39.5089 33.2268 39.5089Z" fill="white"/>
<path d="M33.2268 56.2513C33.6281 56.2513 33.9535 56.5768 33.9535 56.9782C33.9535 57.3797 33.6281 57.7051 33.2268 57.7051C32.8254 57.7051 32.5 57.3797 32.5 56.9782C32.5 56.5768 32.8254 56.2513 33.2268 56.2513Z" fill="white"/>
<path d="M33.2269 74.4473C33.62 74.4473 33.9417 74.1256 33.9417 73.7325C33.9417 73.3394 33.62 73.0057 33.2269 73.0057C32.8337 73.0057 32.512 73.3275 32.512 73.7325C32.5001 74.1256 32.8218 74.4473 33.2269 74.4473Z" fill="white"/>
<path d="M33.2267 89.7358C33.6281 89.7358 33.9535 90.0612 33.9535 90.4626C33.9535 90.864 33.6281 91.1895 33.2267 91.1895C32.8254 91.1895 32.5 90.864 32.5 90.4626C32.5 90.0612 32.8254 89.7358 33.2267 89.7358Z" fill="white"/>
<path d="M33.2268 123.234C33.6281 123.234 33.9535 123.559 33.9535 123.961C33.9535 124.362 33.6281 124.688 33.2268 124.688C32.8254 124.688 32.5 124.362 32.5 123.961C32.5 123.559 32.8254 123.234 33.2268 123.234Z" fill="white"/>
<path d="M33.2267 173.474C33.6281 173.474 33.9535 173.799 33.9535 174.201C33.9535 174.602 33.6281 174.928 33.2267 174.928C32.8254 174.928 32.5 174.602 32.5 174.201C32.5 173.799 32.8254 173.474 33.2267 173.474Z" fill="white"/>
<path d="M33.2268 190.216C33.6281 190.216 33.9535 190.542 33.9535 190.943C33.9535 191.345 33.6281 191.67 33.2268 191.67C32.8254 191.67 32.5 191.345 32.5 190.943C32.5 190.542 32.8254 190.216 33.2268 190.216Z" fill="white"/>
<path d="M48.3097 6.01111C48.7111 6.01111 49.0365 6.33653 49.0365 6.73798C49.0365 7.13942 48.7111 7.46484 48.3097 7.46484C47.9084 7.46484 47.583 7.13942 47.583 6.73798C47.583 6.33653 47.9084 6.01111 48.3097 6.01111Z" fill="white"/>
<path d="M48.3097 22.7652C48.7111 22.7652 49.0365 23.0906 49.0365 23.492C49.0365 23.8934 48.7111 24.2188 48.3097 24.2188C47.9084 24.2188 47.583 23.8934 47.583 23.492C47.583 23.0906 47.9084 22.7652 48.3097 22.7652Z" fill="white"/>
<path d="M48.3097 39.5089C48.7111 39.5089 49.0365 39.8343 49.0365 40.2358C49.0365 40.6373 48.7111 40.9629 48.3097 40.9629C47.9084 40.9629 47.583 40.6373 47.583 40.2358C47.583 39.8343 47.9084 39.5089 48.3097 39.5089Z" fill="white"/>
<path d="M48.3097 56.2513C48.7111 56.2513 49.0365 56.5768 49.0365 56.9782C49.0365 57.3797 48.7111 57.7051 48.3097 57.7051C47.9084 57.7051 47.583 57.3797 47.583 56.9782C47.583 56.5768 47.9084 56.2513 48.3097 56.2513Z" fill="white"/>
<path d="M48.3098 74.4473C48.7029 74.4473 49.0246 74.1256 49.0246 73.7325C49.0246 73.3393 48.7029 73.0057 48.3098 73.0057C47.9166 73.0057 47.583 73.3274 47.583 73.7325C47.583 74.1256 47.9047 74.4473 48.3098 74.4473Z" fill="white"/>
<path d="M48.3098 89.7358C48.7111 89.7358 49.0365 90.0612 49.0365 90.4626C49.0365 90.864 48.7111 91.1895 48.3098 91.1895C47.9084 91.1895 47.583 90.864 47.583 90.4626C47.583 90.0612 47.9084 89.7358 48.3098 89.7358Z" fill="white"/>
<path d="M48.3098 123.234C48.7111 123.234 49.0365 123.559 49.0365 123.961C49.0365 124.362 48.7111 124.688 48.3098 124.688C47.9084 124.688 47.583 124.362 47.583 123.961C47.583 123.559 47.9084 123.234 48.3098 123.234Z" fill="white"/>
<path d="M48.3098 173.474C48.7111 173.474 49.0365 173.799 49.0365 174.201C49.0365 174.602 48.7111 174.928 48.3098 174.928C47.9084 174.928 47.583 174.602 47.583 174.201C47.583 173.799 47.9084 173.474 48.3098 173.474Z" fill="white"/>
<path d="M48.3098 190.216C48.7111 190.216 49.0365 190.542 49.0365 190.943C49.0365 191.345 48.7111 191.67 48.3098 191.67C47.9084 191.67 47.583 191.345 47.583 190.943C47.583 190.542 47.9084 190.216 48.3098 190.216Z" fill="white"/>
<path d="M63.3929 7.46484C63.786 7.46484 64.1196 7.14314 64.1196 6.74992C64.1196 6.3567 63.7979 6.02307 63.3929 6.02307C62.9997 6.02307 62.6781 6.34478 62.6781 6.74992C62.6661 7.14314 62.9878 7.46484 63.3929 7.46484Z" fill="white"/>
<path d="M63.3929 24.209C63.786 24.209 64.1196 23.8872 64.1196 23.4821C64.1196 23.0889 63.7979 22.7672 63.3929 22.7672C62.9997 22.7672 62.6781 23.0889 62.6781 23.4821C62.6661 23.8872 62.9878 24.209 63.3929 24.209Z" fill="white"/>
<path d="M63.3929 40.9512C63.786 40.9512 64.1196 40.6294 64.1196 40.2362C64.1196 39.843 63.7979 39.5093 63.3929 39.5093C62.9997 39.5093 62.6781 39.831 62.6781 40.2362C62.6661 40.6294 62.9878 40.9512 63.3929 40.9512Z" fill="white"/>
<path d="M63.3929 57.6934C63.786 57.6934 64.1196 57.3716 64.1196 56.9783C64.1196 56.5851 63.7979 56.2632 63.3929 56.2632C62.9997 56.2632 62.6781 56.5851 62.6781 56.9783C62.6661 57.3716 62.9878 57.6934 63.3929 57.6934Z" fill="white"/>
<path d="M63.3929 74.4473C63.786 74.4473 64.1196 74.1256 64.1196 73.7324C64.1196 73.3392 63.798 73.0056 63.3929 73.0056C62.9997 73.0056 62.6781 73.3273 62.6781 73.7324C62.6661 74.1256 62.9878 74.4473 63.3929 74.4473Z" fill="white"/>
<path d="M63.3929 107.934C63.7861 107.934 64.1196 107.612 64.1196 107.207C64.1196 106.814 63.798 106.492 63.3929 106.492C62.9997 106.492 62.6781 106.814 62.6781 107.207C62.6661 107.612 62.9878 107.934 63.3929 107.934Z" fill="white"/>
<path d="M63.3929 124.676C63.786 124.676 64.1196 124.354 64.1196 123.961C64.1196 123.568 63.798 123.246 63.3929 123.246C62.9997 123.246 62.6781 123.568 62.6781 123.961C62.6661 124.354 62.9878 124.676 63.3929 124.676Z" fill="white"/>
<path d="M63.3929 174.916C63.786 174.916 64.1196 174.594 64.1196 174.189C64.1196 173.796 63.798 173.474 63.3929 173.474C62.9997 173.474 62.6781 173.796 62.6781 174.189C62.6661 174.594 62.9878 174.916 63.3929 174.916Z" fill="white"/>
<path d="M63.3929 191.658C63.786 191.658 64.1196 191.336 64.1196 190.931C64.1196 190.538 63.7979 190.204 63.3929 190.204C62.9997 190.204 62.6781 190.526 62.6781 190.931C62.6661 191.336 62.9878 191.658 63.3929 191.658Z" fill="white"/>
<path d="M78.4758 7.46484C78.8689 7.46484 79.1906 7.14314 79.1906 6.74992C79.1906 6.3567 78.8689 6.02307 78.4758 6.02307C78.0826 6.02307 77.749 6.34478 77.749 6.74992C77.749 7.14314 78.0707 7.46484 78.4758 7.46484Z" fill="white"/>
<path d="M78.4758 24.209C78.8689 24.209 79.1906 23.8872 79.1906 23.4821C79.1906 23.0889 78.8689 22.7672 78.4758 22.7672C78.0826 22.7672 77.749 23.0889 77.749 23.4821C77.749 23.8872 78.0707 24.209 78.4758 24.209Z" fill="white"/>
<path d="M78.4758 40.9512C78.8689 40.9512 79.1906 40.6294 79.1906 40.2362C79.1906 39.8429 78.8689 39.5093 78.4758 39.5093C78.0826 39.5093 77.749 39.831 77.749 40.2362C77.749 40.6294 78.0707 40.9512 78.4758 40.9512Z" fill="white"/>
<path d="M78.4758 57.6934C78.8689 57.6934 79.1906 57.3716 79.1906 56.9783C79.1906 56.5851 78.8689 56.2632 78.4758 56.2632C78.0826 56.2632 77.749 56.5851 77.749 56.9783C77.749 57.3716 78.0707 57.6934 78.4758 57.6934Z" fill="white"/>
<path d="M78.4758 74.4473C78.8689 74.4473 79.1906 74.1256 79.1906 73.7324C79.1906 73.3392 78.8689 73.0056 78.4758 73.0056C78.0826 73.0056 77.749 73.3273 77.749 73.7324C77.749 74.1256 78.0707 74.4473 78.4758 74.4473Z" fill="white"/>
<path d="M78.4758 107.934C78.8689 107.934 79.1906 107.612 79.1906 107.207C79.1906 106.814 78.8689 106.492 78.4758 106.492C78.0826 106.492 77.749 106.814 77.749 107.207C77.749 107.612 78.0707 107.934 78.4758 107.934Z" fill="white"/>
<path d="M78.4758 124.676C78.869 124.676 79.1907 124.354 79.1907 123.961C79.1907 123.568 78.869 123.246 78.4758 123.246C78.0826 123.246 77.749 123.568 77.749 123.961C77.749 124.354 78.0707 124.676 78.4758 124.676Z" fill="white"/>
<path d="M78.4758 141.43C78.8689 141.43 79.1906 141.108 79.1906 140.715C79.1906 140.322 78.8689 140 78.4758 140C78.0826 140 77.749 140.322 77.749 140.715C77.749 141.108 78.0707 141.43 78.4758 141.43Z" fill="white"/>
<path d="M78.4758 158.174C78.8689 158.174 79.1906 157.852 79.1906 157.447C79.1906 157.054 78.8689 156.732 78.4758 156.732C78.0826 156.732 77.749 157.054 77.749 157.447C77.749 157.852 78.0707 158.174 78.4758 158.174Z" fill="white"/>
<path d="M78.4758 174.916C78.8689 174.916 79.1906 174.594 79.1906 174.189C79.1906 173.796 78.8689 173.474 78.4758 173.474C78.0826 173.474 77.749 173.796 77.749 174.189C77.749 174.594 78.0707 174.916 78.4758 174.916Z" fill="white"/>
<path d="M78.4758 191.658C78.8689 191.658 79.1906 191.336 79.1906 190.931C79.1906 190.538 78.8689 190.204 78.4758 190.204C78.0826 190.204 77.749 190.526 77.749 190.931C77.749 191.336 78.0707 191.658 78.4758 191.658Z" fill="white"/>
<path d="M91.4983 7.46484C91.8915 7.46484 92.2132 7.14314 92.2132 6.74992C92.2132 6.3567 91.8915 6.02307 91.4983 6.02307C91.1051 6.02307 90.7715 6.34478 90.7715 6.74992C90.7715 7.14314 91.0932 7.46484 91.4983 7.46484Z" fill="white"/>
<path d="M91.4983 24.209C91.8915 24.209 92.2132 23.8872 92.2132 23.482C92.2132 23.0888 91.8915 22.7671 91.4983 22.7671C91.1051 22.7671 90.7715 23.0888 90.7715 23.482C90.7715 23.8872 91.0932 24.209 91.4983 24.209Z" fill="white"/>
<path d="M91.4983 40.9512C91.8914 40.9512 92.2131 40.6293 92.2131 40.236C92.2131 39.8427 91.8914 39.509 91.4983 39.509C91.1051 39.509 90.7715 39.8308 90.7715 40.236C90.7715 40.6293 91.0932 40.9512 91.4983 40.9512Z" fill="white"/>
<path d="M91.4983 57.6934C91.8914 57.6934 92.2131 57.3716 92.2131 56.9784C92.2131 56.5852 91.8914 56.2634 91.4983 56.2634C91.1051 56.2634 90.7715 56.5852 90.7715 56.9784C90.7715 57.3716 91.0932 57.6934 91.4983 57.6934Z" fill="white"/>
<path d="M91.4983 74.4473C91.8914 74.4473 92.2131 74.1256 92.2131 73.7324C92.2131 73.3392 91.8914 73.0056 91.4983 73.0056C91.1051 73.0056 90.7715 73.3273 90.7715 73.7324C90.7715 74.1256 91.0932 74.4473 91.4983 74.4473Z" fill="white"/>
<path d="M91.4983 91.1914C91.8914 91.1914 92.2131 90.8697 92.2131 90.4764C92.2131 90.0832 91.8914 89.7495 91.4983 89.7495C91.1051 89.7495 90.7715 90.0712 90.7715 90.4764C90.7715 90.8697 91.0932 91.1914 91.4983 91.1914Z" fill="white"/>
<path d="M91.4983 107.934C91.8914 107.934 92.2131 107.612 92.2131 107.207C92.2131 106.814 91.8914 106.492 91.4983 106.492C91.1051 106.492 90.7715 106.814 90.7715 107.207C90.7715 107.612 91.0932 107.934 91.4983 107.934Z" fill="white"/>
<path d="M91.4983 124.676C91.8914 124.676 92.2131 124.354 92.2131 123.961C92.2131 123.568 91.8914 123.246 91.4983 123.246C91.1051 123.246 90.7715 123.568 90.7715 123.961C90.7715 124.354 91.0932 124.676 91.4983 124.676Z" fill="white"/>
<path d="M91.4983 141.43C91.8914 141.43 92.2131 141.108 92.2131 140.715C92.2131 140.322 91.8914 140 91.4983 140C91.1051 140 90.7715 140.322 90.7715 140.715C90.7715 141.108 91.0932 141.43 91.4983 141.43Z" fill="white"/>
<path d="M91.4983 158.174C91.8914 158.174 92.2131 157.852 92.2131 157.447C92.2131 157.054 91.8914 156.732 91.4983 156.732C91.1051 156.732 90.7715 157.054 90.7715 157.447C90.7715 157.852 91.0932 158.174 91.4983 158.174Z" fill="white"/>
<path d="M91.4983 174.916C91.8914 174.916 92.2131 174.594 92.2131 174.189C92.2131 173.796 91.8914 173.474 91.4983 173.474C91.1051 173.474 90.7715 173.796 90.7715 174.189C90.7715 174.594 91.0932 174.916 91.4983 174.916Z" fill="white"/>
<path d="M91.4983 191.658C91.8915 191.658 92.2132 191.336 92.2132 190.931C92.2132 190.538 91.8915 190.204 91.4983 190.204C91.1051 190.204 90.7715 190.526 90.7715 190.931C90.7715 191.336 91.0932 191.658 91.4983 191.658Z" fill="white"/>
<path d="M106.581 6.01099C106.983 6.01099 107.308 6.33643 107.308 6.73792C107.308 7.1394 106.983 7.46484 106.581 7.46484C106.18 7.46484 105.854 7.1394 105.854 6.73792C105.854 6.33643 106.18 6.01099 106.581 6.01099Z" fill="white"/>
<path d="M106.581 22.7672C106.983 22.7672 107.308 23.0925 107.308 23.4939C107.308 23.8953 106.983 24.2207 106.581 24.2207C106.18 24.2207 105.854 23.8953 105.854 23.4939C105.854 23.0925 106.18 22.7672 106.581 22.7672Z" fill="white"/>
<path d="M106.581 39.5089C106.983 39.5089 107.308 39.8343 107.308 40.2358C107.308 40.6373 106.983 40.9629 106.581 40.9629C106.18 40.9629 105.854 40.6373 105.854 40.2358C105.854 39.8343 106.18 39.5089 106.581 39.5089Z" fill="white"/>
<path d="M106.581 56.2513C106.983 56.2513 107.308 56.5768 107.308 56.9782C107.308 57.3797 106.983 57.7051 106.581 57.7051C106.18 57.7051 105.854 57.3797 105.854 56.9782C105.854 56.5768 106.18 56.2513 106.581 56.2513Z" fill="white"/>
<path d="M106.581 74.4473C106.974 74.4473 107.296 74.1256 107.296 73.7325C107.296 73.3393 106.974 73.0057 106.581 73.0057C106.188 73.0057 105.854 73.3274 105.854 73.7325C105.854 74.1256 106.176 74.4473 106.581 74.4473Z" fill="white"/>
<path d="M106.581 89.7358C106.983 89.7358 107.308 90.0612 107.308 90.4626C107.308 90.8641 106.983 91.1895 106.581 91.1895C106.18 91.1895 105.854 90.8641 105.854 90.4626C105.854 90.0612 106.18 89.7358 106.581 89.7358Z" fill="white"/>
<path d="M106.581 107.934C106.974 107.934 107.296 107.612 107.296 107.207C107.296 106.813 106.974 106.492 106.581 106.492C106.188 106.492 105.854 106.813 105.854 107.207C105.854 107.612 106.176 107.934 106.581 107.934Z" fill="white"/>
<path d="M106.581 123.234C106.983 123.234 107.308 123.559 107.308 123.961C107.308 124.362 106.983 124.688 106.581 124.688C106.18 124.688 105.854 124.362 105.854 123.961C105.854 123.559 106.18 123.234 106.581 123.234Z" fill="white"/>
<path d="M106.581 173.474C106.983 173.474 107.308 173.799 107.308 174.201C107.308 174.602 106.983 174.928 106.581 174.928C106.18 174.928 105.854 174.602 105.854 174.201C105.854 173.799 106.18 173.474 106.581 173.474Z" fill="white"/>
<path d="M106.581 190.216C106.983 190.216 107.308 190.542 107.308 190.943C107.308 191.345 106.983 191.67 106.581 191.67C106.18 191.67 105.854 191.345 105.854 190.943C105.854 190.542 106.18 190.216 106.581 190.216Z" fill="white"/>
<path d="M218.777 84.3148C217.967 91.5004 223.149 97.9949 230.321 98.8052C237.506 99.6156 243.999 94.4319 244.809 87.2463C245.619 80.0607 240.436 73.5662 233.252 72.7559C226.08 71.9456 219.587 77.1292 218.777 84.3148ZM243.772 87.1391C243.022 93.7408 237.041 98.5192 230.441 97.7685C223.84 97.0178 219.063 91.0357 219.813 84.434C220.564 77.8323 226.545 73.0538 233.145 73.8046C239.745 74.5434 244.523 80.5255 243.772 87.1391Z" fill="#E9F5FF"/>
<g opacity="0.22">
<g opacity="0.22">
<path opacity="0.22" d="M329.935 639.06C328.97 642.826 331.245 646.663 335.01 647.628C338.775 648.593 342.611 646.317 343.576 642.551C344.541 638.786 342.266 634.949 338.501 633.984C334.748 633.018 330.9 635.294 329.935 639.06ZM343.147 642.444C342.242 645.971 338.644 648.105 335.117 647.199C331.591 646.293 329.458 642.694 330.363 639.167C331.269 635.64 334.867 633.507 338.394 634.413C341.92 635.318 344.053 638.917 343.147 642.444Z" fill="#0F3F7E"/>
</g>
<g opacity="0.22">
<path opacity="0.22" d="M326.098 638.072C324.597 643.947 328.147 649.953 334.021 651.466C339.895 652.968 345.899 649.417 347.412 643.542C348.913 637.667 345.363 631.661 339.489 630.148C333.616 628.646 327.611 632.197 326.098 638.072ZM346.983 643.435C345.542 649.071 339.775 652.491 334.128 651.049C328.481 649.607 325.073 643.84 326.515 638.191C327.957 632.555 333.723 629.135 339.37 630.577C345.018 632.019 348.437 637.786 346.983 643.435Z" fill="#0F3F7E"/>
</g>
<g opacity="0.22">
<path opacity="0.22" d="M321.416 636.868C319.248 645.329 324.371 653.98 332.83 656.149C341.289 658.318 349.939 653.194 352.107 644.733C354.275 636.272 349.152 627.621 340.693 625.452C332.234 623.283 323.585 628.407 321.416 636.868ZM351.678 644.638C349.569 652.86 341.158 657.841 332.937 655.732C324.717 653.623 319.737 645.21 321.845 636.987C323.954 628.765 332.365 623.784 340.586 625.893C348.807 628.002 353.787 636.403 351.678 644.638Z" fill="#0F3F7E"/>
</g>
<g opacity="0.22">
<path opacity="0.22" d="M316.508 635.617C313.648 646.783 320.404 658.199 331.567 661.059C342.731 663.919 354.144 657.162 357.004 645.996C359.863 634.831 353.108 623.415 341.944 620.555C330.781 617.695 319.367 624.451 316.508 635.617ZM356.575 645.889C353.775 656.816 342.599 663.43 331.674 660.63C320.749 657.829 314.137 646.652 316.937 635.724C319.736 624.797 330.912 618.183 341.837 620.984C352.762 623.784 359.375 634.962 356.575 645.889Z" fill="#0F3F7E"/>
</g>
<g opacity="0.22">
<path opacity="0.22" d="M312.242 634.52C308.775 648.034 316.948 661.857 330.47 665.324C343.981 668.792 357.801 660.617 361.268 647.092C364.735 633.579 356.562 619.756 343.04 616.288C329.529 612.832 315.709 621.007 312.242 634.52ZM360.839 646.985C357.432 660.272 343.862 668.303 330.578 664.895C317.293 661.487 309.263 647.914 312.671 634.628C316.078 621.341 329.648 613.309 342.933 616.717C356.205 620.125 364.247 633.698 360.839 646.985Z" fill="#0F3F7E"/>
</g>
<g opacity="0.22">
<path opacity="0.22" d="M307.132 633.21C302.938 649.547 312.826 666.254 329.161 670.437C345.495 674.619 362.198 664.741 366.38 648.403C370.574 632.066 360.685 615.359 344.351 611.176C328.017 606.982 311.313 616.872 307.132 633.21ZM365.951 648.296C361.829 664.395 345.364 674.143 329.268 670.02C313.172 665.897 303.426 649.428 307.549 633.329C311.671 617.23 328.136 607.482 344.232 611.605C360.34 615.728 370.085 632.197 365.951 648.296Z" fill="#0F3F7E"/>
</g>
<g opacity="0.22">
<path opacity="0.22" d="M302.02 631.899C297.111 651.061 308.704 670.639 327.85 675.561C347.008 680.47 366.582 668.876 371.503 649.726C376.411 630.564 364.819 610.986 345.673 606.064C326.503 601.143 306.929 612.737 302.02 631.899ZM371.074 649.607C366.225 668.53 346.888 679.982 327.957 675.132C309.037 670.282 297.588 650.941 302.437 632.006C307.286 613.083 326.623 601.631 345.554 606.481C364.474 611.343 375.923 630.683 371.074 649.607Z" fill="#0F3F7E"/>
</g>
</g>
<g opacity="0.22">
<g opacity="0.22">
<path opacity="0.22" d="M-179.476 102.81C-191.985 151.608 -162.474 201.478 -113.686 213.99C-64.8979 226.503 -15.0374 196.974 -2.52766 148.188C9.98213 99.3897 -19.529 49.5193 -68.3172 37.007C-117.105 24.5066 -166.966 54.0236 -179.476 102.81ZM-4.06457 147.794C-16.348 195.734 -65.3506 224.751 -113.281 212.453C-161.211 200.167 -190.222 151.155 -177.927 103.215C-165.643 55.2749 -116.641 26.2583 -68.7103 38.5561C-20.78 50.842 8.21885 99.8425 -4.06457 147.794Z" fill="#0F3F7E"/>
</g>
<g opacity="0.22">
<path opacity="0.22" d="M-197.942 98.079C-213.049 157.054 -177.378 217.339 -118.415 232.461C-59.4526 247.583 0.820666 211.905 15.9396 152.919C31.0586 93.944 -4.61215 33.6587 -63.5868 18.5367C-122.55 3.42664 -182.823 39.1045 -197.942 98.079ZM14.3908 152.525C-0.501783 210.654 -59.9054 245.819 -118.022 230.924C-176.139 216.016 -211.298 156.601 -196.405 98.4722C-181.5 40.3438 -122.109 5.17834 -63.9919 20.0739C-5.86313 34.9814 29.2953 94.3969 14.3908 152.525Z" fill="#0F3F7E"/>
</g>
</g>
<path d="M97.3252 348.895C97.3252 417.403 127.706 478.809 175.732 520.361" stroke="#F8FAFB" stroke-width="0.75" stroke-miterlimit="10"/>
<path d="M336.762 122.602C332.521 122.364 328.244 122.245 323.931 122.245C240.056 122.245 166.832 167.825 127.646 235.57" stroke="#F8FAFB" stroke-width="0.75" stroke-miterlimit="10"/>
<path d="M532.725 260.678C508.98 204.515 463.242 159.924 406.305 137.688" stroke="#F8FAFB" stroke-width="0.75" stroke-miterlimit="10"/>
<path d="M323.931 575.547C430.466 575.547 519.822 502.01 544.055 402.925" stroke="#F8FAFB" stroke-width="0.75" stroke-miterlimit="10"/>
<path d="M199.369 140.99C135.629 178.193 95.0022 239.837 82.4209 307.105" stroke="#F8FAFB" stroke-width="0.75" stroke-miterlimit="10"/>
<path d="M539.969 240.945C537.884 236.87 535.668 232.818 533.333 228.814C487.773 150.738 405.59 107.338 321.286 107.66" stroke="#F8FAFB" stroke-width="0.75" stroke-miterlimit="10"/>
<path d="M111.563 475.02C169.429 574.188 286.378 617.421 391.734 586.152" stroke="#1064C6" stroke-miterlimit="10"/>
<g opacity="0.43">
<path opacity="0.4" d="M152.952 61.4474C64.8233 112.891 8.64846 198.105 -8.74609 291.125" stroke="#1064C6" stroke-miterlimit="10"/>
<path opacity="0.43" d="M623.855 199.643C620.972 194.006 617.91 188.405 614.681 182.864C551.692 74.925 438.067 14.9137 321.5 15.3546" stroke="#F8FAFB" stroke-width="0.5" stroke-miterlimit="10"/>
<path opacity="0.43" d="M31.5596 523.27C111.563 660.369 273.26 720.154 418.922 676.921" stroke="#F8FAFB" stroke-width="0.5" stroke-miterlimit="10"/>
</g>
<g opacity="0.43">
<path opacity="0.43" d="M373.899 48.2683C281.731 31.9547 191.887 58.2186 124.537 112.963" stroke="#F8FAFB" stroke-width="0.4586" stroke-miterlimit="10"/>
<path opacity="0.43" d="M388.874 655.293C470.092 636.703 540.981 585.772 584.443 514.441" stroke="#F8FAFB" stroke-width="0.4586" stroke-miterlimit="10"/>
<path d="M14.987 299.277C-10.39 442.668 67.2539 580.458 194.794 636.668" stroke="#1064C6" stroke-miterlimit="10"/>
</g>
<path d="M324.097 149.642C434.121 149.642 523.312 238.852 523.312 348.897C523.312 458.943 434.12 548.152 324.097 548.152C214.073 548.152 124.882 458.943 124.882 348.897C124.882 238.852 214.074 149.642 324.097 149.642Z" fill="url(#paint0_linear_4979_4920)"/>
</g>
<defs>
<linearGradient id="paint0_linear_4979_4920" x1="447.209" y1="488.558" x2="183.647" y2="189.676" gradientUnits="userSpaceOnUse">
<stop stop-color="white" stop-opacity="0"/>
<stop offset="1" stop-color="white"/>
</linearGradient>
<clipPath id="clip0_4979_4920">
<rect width="424" height="638" fill="white" transform="matrix(1 8.74228e-08 8.74228e-08 -1 0 638)"/>
</clipPath>
</defs>
</svg>
