<svg width="313" height="636" viewBox="0 0 313 636" fill="none" xmlns="http://www.w3.org/2000/svg">
<g opacity="0.3" clip-path="url(#clip0_4979_5307)">
<path d="M-39.1318 197.97L-104.52 242.866L-104.418 245.06L-34.826 283.119L30.5791 238.24L26.6306 160.285L30.46 236.047L-39.1318 197.97Z" fill="#202020"/>
<path d="M30.4639 236.047L26.6345 160.285L26.5154 158.091L-43.0764 120.015L-39.7236 185.964L-39.1279 197.971L30.4639 236.047Z" fill="#0F3F7E"/>
<path d="M-39.0068 200.402L-38.6494 207.188L-36.7773 244.465L0.188474 219.092L0.137419 217.851L-2.02404 175.03L-39.0068 200.402Z" fill="#1064C6"/>
<path d="M-27.0449 436.837L-92.4329 481.716L-92.3308 483.91L-22.739 521.986L42.666 477.108L38.7175 399.135L42.5469 474.897L-27.0449 436.837Z" fill="#202020"/>
<path d="M42.5469 474.896L38.7175 399.135L38.5984 396.941L-30.9933 358.882L-27.6576 424.831L-27.0449 436.837L42.5469 474.896Z" fill="#0F3F7E"/>
<path d="M-26.9248 439.252L10.041 413.879L9.98996 412.638L-29.3586 391.125L-66.3244 416.498L-64.0949 460.561L-66.2563 417.739L-26.9248 439.252Z" fill="#202020"/>
<path d="M-26.9287 439.251L-26.5713 446.036L-24.6992 483.33L12.2666 457.957L12.2155 456.716L10.0371 413.878L-26.9287 439.251Z" fill="#1064C6"/>
<path d="M243.306 423.181L177.901 468.06L178.02 470.254L247.612 508.33L313 463.451L309.052 385.479L312.881 461.24L243.306 423.181Z" fill="#202020"/>
<path d="M312.88 461.24L309.051 385.479L308.948 383.285L239.357 345.225L242.692 411.175L243.305 423.181L312.88 461.24Z" fill="#0F3F7E"/>
<path d="M243.305 423.18L242.692 411.174L239.356 345.224L173.968 390.103L174.07 392.297L177.9 468.059L243.305 423.18Z" fill="#1064C6"/>
<path d="M243.425 425.596L280.391 400.223L280.323 398.981L240.991 377.469L204.025 402.842L206.255 446.904L204.076 404.083L243.425 425.596Z" fill="#202020"/>
<path d="M204.076 404.082L206.255 446.903L206.306 448.144L245.654 469.674L243.765 432.38L243.425 425.594L204.076 404.082Z" fill="#0F3F7E"/>
<path d="M243.427 425.594L243.767 432.38L245.656 469.674L282.622 444.301L282.554 443.059L280.393 400.221L243.427 425.594Z" fill="#1064C6"/>
<path d="M169.393 307.183L104.005 352.061L104.107 354.255L173.699 392.314L239.087 347.436L235.155 269.48L238.985 345.242L169.393 307.183Z" fill="#202020"/>
<path d="M238.983 345.242L235.154 269.481L235.035 267.287L165.443 229.227L168.779 295.177L169.392 307.183L238.983 345.242Z" fill="#0F3F7E"/>
<path d="M169.392 307.184L168.779 295.178L165.443 229.228L100.055 274.107L100.157 276.301L104.004 352.063L169.392 307.184Z" fill="#1064C6"/>
<path d="M169.513 309.598L206.479 284.225L206.41 282.983L167.079 261.471L130.113 286.844L132.343 330.906L130.181 288.085L169.513 309.598Z" fill="#202020"/>
<path d="M130.177 288.085L132.339 330.906L132.407 332.148L171.738 353.66L169.849 316.383L169.509 309.598L130.177 288.085Z" fill="#0F3F7E"/>
<path d="M169.51 309.598L169.85 316.383L171.739 353.66L208.705 328.287L208.654 327.063L206.476 284.225L169.51 309.598Z" fill="#1064C6"/>
<path d="M34.4096 314.003L-30.9954 358.882L-30.8763 361.075L38.7155 399.135L104.104 354.256L100.155 276.301L104.001 352.062L34.4096 314.003Z" fill="#202020"/>
<path d="M104.001 352.062L100.155 276.301L100.053 274.107L30.4607 236.048L33.7965 301.98L34.4092 314.003L104.001 352.062Z" fill="#0F3F7E"/>
<path d="M34.4131 314.002L33.8004 301.979L30.4646 236.047L-34.9234 280.925L-34.8213 283.119L-30.9919 358.881L34.4131 314.002Z" fill="#1064C6"/>
<path d="M34.5293 316.416L71.4951 291.043L71.427 289.802L32.0955 268.289L-4.87035 293.662L-2.64082 337.725L-4.80226 294.904L34.5293 316.416Z" fill="#202020"/>
<path d="M-4.80228 294.905L-2.64085 337.726L-2.58977 338.968L36.7588 360.48L34.8696 323.203L34.5293 316.418L-4.80228 294.905Z" fill="#0F3F7E"/>
<path d="M34.5312 316.418L34.8716 323.203L36.7607 360.48L73.7266 335.108L73.6585 333.866L71.497 291.045L34.5312 316.418Z" fill="#1064C6"/>
<path d="M95.8516 191.169L30.4636 236.048L30.5827 238.241L100.157 276.301L165.562 231.422L161.614 153.467L165.443 229.228L95.8516 191.169Z" fill="#202020"/>
<path d="M165.442 229.229L161.613 153.467L161.511 151.273L91.9191 113.197L95.2549 179.146L95.8506 191.169L165.442 229.229Z" fill="#0F3F7E"/>
<path d="M95.8506 191.168L95.2549 179.145L91.9191 113.196L26.5141 158.091L26.6332 160.285L30.4626 236.047L95.8506 191.168Z" fill="#1064C6"/>
<path d="M95.9882 193.582L132.954 168.209L132.886 166.968L93.5545 145.455L56.5886 170.811L58.8182 214.891L56.6397 172.053L95.9882 193.582Z" fill="#202020"/>
<path d="M56.6387 172.055L58.8172 214.893L58.8682 216.134L98.2168 237.646L96.3277 200.369L95.9873 193.584L56.6387 172.055Z" fill="#0F3F7E"/>
<path d="M95.9853 193.584L96.3257 200.369L98.2148 237.646L135.181 212.274L135.113 211.032L132.951 168.211L95.9853 193.584Z" fill="#1064C6"/>
<path d="M181.476 546.031L116.088 590.927L116.19 593.12L185.782 631.18L251.17 586.301L247.238 508.346L251.068 584.107L181.476 546.031Z" fill="#202020"/>
<path d="M251.066 584.107L247.237 508.346L247.118 506.152L177.526 468.076L180.862 534.025L181.475 546.031L251.066 584.107Z" fill="#0F3F7E"/>
<path d="M181.475 546.032L180.862 534.026L177.526 468.077L112.138 512.972L112.24 515.166L116.087 590.928L181.475 546.032Z" fill="#1064C6"/>
<path d="M181.595 548.463L218.561 523.09L218.509 521.849L179.161 500.319L142.195 525.692L144.425 569.771L142.263 526.933L181.595 548.463Z" fill="#202020"/>
<path d="M142.263 526.933L144.425 569.771L144.493 571.013L183.824 592.525L181.935 555.248L181.595 548.463L142.263 526.933Z" fill="#0F3F7E"/>
<path d="M181.593 548.463L181.933 555.248L183.822 592.525L220.788 567.152L220.72 565.911L218.559 523.09L181.593 548.463Z" fill="#1064C6"/>
<path d="M46.4966 552.851L-18.8915 597.747L-18.7893 599.941L50.8024 638L116.19 593.121L112.242 515.166L116.088 590.927L46.4966 552.851Z" fill="#202020"/>
<path d="M116.088 590.928L112.242 515.166L112.139 512.972L42.5476 474.896L45.8833 540.845L46.496 552.851L116.088 590.928Z" fill="#0F3F7E"/>
<path d="M46.4961 552.85L45.8834 540.844L42.5476 474.895L-22.8404 519.774L-22.7383 521.984L-18.8919 597.746L46.4961 552.85Z" fill="#1064C6"/>
<path d="M46.6162 555.283L83.582 529.91L83.514 528.669L44.1824 507.139L7.21653 532.512L9.44606 576.592L7.2846 533.754L46.6162 555.283Z" fill="#202020"/>
<path d="M7.28564 533.754L9.4471 576.592L9.51516 577.833L48.8467 599.346L46.9575 562.069L46.6172 555.283L7.28564 533.754Z" fill="#0F3F7E"/>
<path d="M46.6132 555.283L46.9536 562.069L48.8427 599.346L85.8086 573.973L85.7405 572.731L83.5791 529.91L46.6132 555.283Z" fill="#1064C6"/>
<path d="M107.935 430.017L42.5465 474.896L42.6657 477.107L112.24 515.166L177.646 470.287L173.697 392.315L177.526 468.076L107.935 430.017Z" fill="#202020"/>
<path d="M177.525 468.076L173.696 392.315L173.577 390.121L104.002 352.061L107.338 418.011L107.934 430.017L177.525 468.076Z" fill="#0F3F7E"/>
<path d="M107.934 430.018L107.338 418.011L104.002 352.062L38.5971 396.941L38.7163 399.135L42.5456 474.896L107.934 430.018Z" fill="#1064C6"/>
<path d="M108.071 432.432L145.037 407.059L144.969 405.817L105.638 384.305L68.6546 409.678L70.8842 453.74L68.7227 410.919L108.071 432.432Z" fill="#202020"/>
<path d="M68.7231 410.92L70.8846 453.741L70.9526 454.982L110.284 476.512L108.412 439.235L108.072 432.432L68.7231 410.92Z" fill="#0F3F7E"/>
<path d="M108.071 432.432L108.412 439.235L110.284 476.512L147.267 451.139L147.199 449.897L145.037 407.059L108.071 432.432Z" fill="#1064C6"/>
</g>
<defs>
<clipPath id="clip0_4979_5307">
<rect width="313" height="638" fill="white" transform="translate(313 638) rotate(180)"/>
</clipPath>
</defs>
</svg>
