<svg width="127" height="820" viewBox="0 0 127 820" fill="none" xmlns="http://www.w3.org/2000/svg">
<path opacity="0.1" d="M2.66019 773.797L2.66019 775.226L4.01118 775.689L121.196 815.892L123.845 816.801L123.845 814L123.845 781.61L123.845 780.119L122.416 779.693L100.903 773.283L100.903 745.493L122.428 738.926L123.845 738.494L123.845 737.013L123.845 704.786L123.845 701.989L121.198 702.893L4.01353 742.933L2.66019 743.395L2.66019 744.826L2.66019 773.797ZM40.4071 696.118L40.4198 696.123L40.4326 696.128C47.5814 698.814 54.8613 700.162 62.2621 700.162C70.0023 700.162 77.6195 698.702 85.1029 695.794C92.584 692.888 99.2821 688.803 105.185 683.541L105.193 683.534L105.201 683.527C111.108 678.15 115.879 671.819 119.508 664.549L119.516 664.533L119.524 664.516C123.073 657.065 124.835 648.901 124.835 640.055C124.835 635.008 124.209 629.863 122.967 624.625C121.722 619.269 119.907 614.286 117.517 609.682C115.122 604.959 112.148 600.781 108.593 597.16C105.002 593.393 100.92 590.57 96.352 588.721L94.7737 588.083L93.8914 589.539L78.2118 615.418L76.9565 617.49L79.2286 618.331C81.6479 619.225 83.6704 620.45 85.3288 621.99L85.3316 621.992C86.9273 623.468 88.2803 625.193 89.39 627.179C90.3989 629.072 91.1574 631.064 91.6664 633.156C92.0782 635.302 92.2816 637.384 92.2816 639.404C92.2816 643.239 91.5191 646.665 90.0277 649.719C88.3961 652.725 86.2653 655.271 83.6278 657.372C80.9707 659.488 77.8896 661.114 74.363 662.239C70.8256 663.368 67.125 663.935 63.2524 663.935C59.8093 663.935 56.3591 663.473 52.8978 662.544C49.3641 661.517 46.283 660.041 43.6322 658.132C40.9047 656.139 38.7376 653.654 37.1184 650.66L37.1128 650.65L37.1071 650.64C35.4299 647.624 34.5534 644.01 34.5534 639.73C34.5534 637.695 34.7597 635.598 35.1773 633.436L35.1789 633.428L35.1804 633.419C35.5857 631.221 36.2942 629.125 37.3081 627.125C38.2964 625.176 39.6352 623.41 41.3411 621.827L41.3633 621.806L41.3849 621.785C43.0274 620.165 45.1438 618.839 47.7869 617.836L50.2256 616.912L48.6997 614.796L31.2045 590.545L30.1923 589.141L28.6581 589.941C20.5846 594.149 14.1533 600.568 9.36003 609.116C4.42589 617.609 1.99999 627.622 1.99999 639.079C1.99999 648.657 3.75149 657.255 7.30589 664.831C10.8184 672.318 15.4226 678.717 21.1258 684.003C26.8096 689.272 33.24 693.313 40.4071 696.118ZM34.7184 481.132L34.7184 479.132L32.7184 479.132L4.66018 479.132L2.66018 479.132L2.66018 481.132L2.66019 579.441L2.66019 581.441L4.66019 581.441L32.7184 581.441L34.7184 581.441L34.7184 579.441L34.7184 548.075L121.845 548.075L123.845 548.075L123.845 546.075L123.845 514.336L123.845 512.336L121.845 512.336L34.7184 512.336L34.7184 481.132ZM93.7864 376.425L91.7864 376.425L91.7864 378.425L91.7864 427.044L77.301 427.044L77.301 387.051L77.301 385.051L75.301 385.051L49.2233 385.051L47.2233 385.051L47.2233 387.051L47.2233 427.044L34.7184 427.044L34.7184 379.889L34.7184 377.889L32.7184 377.889L4.66018 377.889L2.66018 377.889L2.66018 379.889L2.66018 460.783L2.66018 462.783L4.66018 462.783L121.845 462.783L123.845 462.783L123.845 460.783L123.845 378.425L123.845 376.425L121.845 376.425L93.7864 376.425ZM48.7522 307.489L48.7472 307.489L34.7184 306.192L34.7184 289.507L121.845 289.507L123.845 289.507L123.845 287.507L123.845 255.768L123.845 253.768L121.845 253.768L4.66017 253.768L2.66017 253.768L2.66017 255.768L2.66017 336.499L2.66017 338.327L4.48074 338.491L38.8108 341.583L38.8117 341.584C50.8953 342.667 60.5328 343.748 67.7388 344.824C74.8273 345.9 80.1391 347.226 83.7651 348.758C87.3672 350.281 89.5722 352.15 90.7131 354.227C91.9762 356.526 92.8608 359.61 93.2831 363.567L93.474 365.355L95.2718 365.355L123 365.355L125 365.355L125 363.355C125 353.565 123.887 345.346 121.587 338.769C119.245 332.071 115.076 326.635 109.135 322.496C103.237 318.279 95.372 315.106 85.6461 312.901C75.9589 310.705 63.6528 308.904 48.7522 307.489ZM2.66017 145.695L2.66017 146.708L3.47722 147.307L65.562 192.849L4.66017 192.849L2.66017 192.849L2.66017 194.849L2.66017 226.588L2.66017 228.588L4.66017 228.588L121.845 228.588L123.845 228.588L123.845 226.588L123.845 202.987L123.845 201.986L123.043 201.386L62.8259 156.321L121.845 156.321L123.845 156.321L123.845 154.321L123.845 122.582L123.845 120.582L121.845 120.582L4.66017 120.582L2.66017 120.582L2.66017 122.582L2.66017 145.695ZM34.7184 4L34.7184 2L32.7184 2L4.66016 2L2.66016 2L2.66016 4L2.66016 102.309L2.66016 104.309L4.66016 104.309L32.7184 104.309L34.7184 104.309L34.7184 102.309L34.7184 70.9426L121.845 70.9426L123.845 70.9426L123.845 68.9426L123.845 37.2037L123.845 35.2037L121.845 35.2037L34.7184 35.2037L34.7184 4ZM48.3369 759.356L75.4466 751.7L75.4466 767.376L48.3369 759.356Z" stroke="white" stroke-width="4"/>
</svg>
