<svg width="74" height="64" viewBox="0 0 74 64" fill="none" xmlns="http://www.w3.org/2000/svg">
<path d="M46.0323 50.8889L49.4194 62M41.5161 62H52.8065M2 13.1111H38.129M7.64516 19.7778H16.6774M16.6774 24.2222H25.7097M7.64516 24.2222H14.4194M14.4194 37.5556H23.4516M7.64516 37.5556H12.1613M12.1613 28.6667H23.4516M25.7097 28.6667H32.4839M12.1613 33.1111H27.9677M12.1613 42H18.9355M21.1935 42H32.4839M12.1613 46.4444H27.9677M12.1613 50.8889H23.4516M25.7097 50.8889H32.4839M7.64516 55.3333H16.6774M18.9355 55.3333H23.4516M51.6774 7.55556V16.4444M42.6452 18.6667V27.5556M42.6452 29.7778V38.6667M47.1613 29.7778V38.6667M51.6774 29.7778V38.6667M65.2258 29.7778V38.6667M56.1935 7.55556V16.4444M56.1935 18.6667V27.5556M2 5.33333V3.11111C2 2.5 2.50806 2 3.12903 2H70.871C71.4919 2 72 2.5 72 3.11111V49.7778C72 50.3889 71.4919 50.8889 70.871 50.8889H41.5161M72 44.2222H41.5161M2 8.66667H38.129V62H2V8.66667ZM47.1613 14.2222C47.1613 14.8333 46.6532 15.3333 46.0323 15.3333H43.7742C43.1532 15.3333 42.6452 14.8333 42.6452 14.2222V9.77778C42.6452 9.16667 43.1532 8.66667 43.7742 8.66667H46.0323C46.6532 8.66667 47.1613 9.16667 47.1613 9.77778V14.2222ZM65.2258 14.2222C65.2258 14.8333 64.7177 15.3333 64.0968 15.3333H61.8387C61.2177 15.3333 60.7097 14.8333 60.7097 14.2222V9.77778C60.7097 9.16667 61.2177 8.66667 61.8387 8.66667H64.0968C64.7177 8.66667 65.2258 9.16667 65.2258 9.77778V14.2222ZM51.6774 25.3333C51.6774 25.9444 51.1694 26.4444 50.5484 26.4444H48.2903C47.6694 26.4444 47.1613 25.9444 47.1613 25.3333V20.8889C47.1613 20.2778 47.6694 19.7778 48.2903 19.7778H50.5484C51.1694 19.7778 51.6774 20.2778 51.6774 20.8889V25.3333ZM65.2258 25.3333C65.2258 25.9444 64.7177 26.4444 64.0968 26.4444H61.8387C61.2177 26.4444 60.7097 25.9444 60.7097 25.3333V20.8889C60.7097 20.2778 61.2177 19.7778 61.8387 19.7778H64.0968C64.7177 19.7778 65.2258 20.2778 65.2258 20.8889V25.3333ZM60.7097 36.4444C60.7097 37.0556 60.2016 37.5556 59.5806 37.5556H57.3226C56.7016 37.5556 56.1935 37.0556 56.1935 36.4444V32C56.1935 31.3889 56.7016 30.8889 57.3226 30.8889H59.5806C60.2016 30.8889 60.7097 31.3889 60.7097 32V36.4444Z" stroke="white" stroke-width="3" stroke-miterlimit="10"/>
</svg>
