<svg width="72" height="82" viewBox="0 0 72 82" fill="none" xmlns="http://www.w3.org/2000/svg">
<path d="M19.6296 34.7097V33.2097H18.1296V34.7097H19.6296ZM52.3704 34.7097H53.8704V33.2097H52.3704V34.7097ZM52.3704 47.2903V48.7903H53.8704V47.2903H52.3704ZM19.6296 47.2903H18.1296V48.7903H19.6296V47.2903ZM8.29631 19.6129L9.35647 18.5517C8.7708 17.9666 7.82183 17.9666 7.23615 18.5517L8.29631 19.6129ZM63.7037 19.6129L64.7639 18.5517L63.7037 17.4926L62.6436 18.5517L63.7037 19.6129ZM36 19.6129L37.0602 18.5517L36 17.4926L34.9399 18.5517L36 19.6129ZM8.29631 62.3871L7.23615 63.4483C7.82183 64.0334 8.7708 64.0334 9.35647 63.4483L8.29631 62.3871ZM63.7037 62.3871L62.6436 63.4483L63.7037 64.5074L64.7639 63.4483L63.7037 62.3871ZM36 62.3871L34.9399 63.4483L36 64.5074L37.0602 63.4483L36 62.3871ZM19.6296 36.2097H52.3704V33.2097H19.6296V36.2097ZM50.8704 34.7097V47.2903H53.8704V34.7097H50.8704ZM52.3704 45.7903H19.6296V48.7903H52.3704V45.7903ZM21.1296 47.2903V34.7097H18.1296V47.2903H21.1296ZM15.8519 36.9839H10.8148V39.9839H15.8519V36.9839ZM10.8148 36.9839C10.2567 36.9839 9.79631 36.5218 9.79631 35.9677H6.79631C6.79631 38.1814 8.60256 39.9839 10.8148 39.9839V36.9839ZM9.79631 35.9677V19.6129H6.79631V35.9677H9.79631ZM14.3935 23.584L9.35647 18.5517L7.23615 20.6741L12.2732 25.7063L14.3935 23.584ZM7.23615 18.5517L2.1991 23.584L4.31941 25.7063L9.35646 20.6741L7.23615 18.5517ZM56.1482 39.9839H61.1852V36.9839H56.1482V39.9839ZM61.1852 39.9839C63.3975 39.9839 65.2037 38.1814 65.2037 35.9677H62.2037C62.2037 36.5218 61.7433 36.9839 61.1852 36.9839V39.9839ZM65.2037 35.9677V19.6129H62.2037V35.9677H65.2037ZM59.7268 25.7063L64.7639 20.6741L62.6436 18.5517L57.6065 23.584L59.7268 25.7063ZM62.6436 20.6741L67.6806 25.7063L69.8009 23.584L64.7639 18.5517L62.6436 20.6741ZM37.5 30.9355V19.6129H34.5V30.9355H37.5ZM42.0972 23.584L37.0602 18.5517L34.9399 20.6741L39.9769 25.7063L42.0972 23.584ZM34.9399 18.5517L29.9028 23.584L32.0231 25.7063L37.0602 20.6741L34.9399 18.5517ZM15.8519 42.0161H10.8148V45.0161H15.8519V42.0161ZM10.8148 42.0161C8.60256 42.0161 6.79631 43.8186 6.79631 46.0323H9.79631C9.79631 45.4782 10.2567 45.0161 10.8148 45.0161V42.0161ZM6.79631 46.0323V62.3871H9.79631V46.0323H6.79631ZM12.2732 56.2937L7.23615 61.3259L9.35647 63.4483L14.3935 58.416L12.2732 56.2937ZM9.35646 61.3259L4.31941 56.2937L2.1991 58.416L7.23615 63.4483L9.35646 61.3259ZM56.1482 45.0161H61.1852V42.0161H56.1482V45.0161ZM61.1852 45.0161C61.7433 45.0161 62.2037 45.4782 62.2037 46.0323H65.2037C65.2037 43.8186 63.3975 42.0161 61.1852 42.0161V45.0161ZM62.2037 46.0323V62.3871H65.2037V46.0323H62.2037ZM57.6065 58.416L62.6436 63.4483L64.7639 61.3259L59.7268 56.2937L57.6065 58.416ZM64.7639 63.4483L69.8009 58.416L67.6806 56.2937L62.6436 61.3259L64.7639 63.4483ZM34.5 51.0645V62.3871H37.5V51.0645H34.5ZM39.9769 56.2937L34.9399 61.3259L37.0602 63.4483L42.0972 58.416L39.9769 56.2937ZM37.0602 61.3259L32.0231 56.2937L29.9028 58.416L34.9399 63.4483L37.0602 61.3259ZM13.0926 8.29032C13.0926 10.9346 10.9466 13.0806 8.2963 13.0806V16.0806C12.6007 16.0806 16.0926 12.5941 16.0926 8.29032H13.0926ZM8.2963 13.0806C5.64603 13.0806 3.5 10.9346 3.5 8.29032H0.5C0.5 12.5941 3.99186 16.0806 8.2963 16.0806V13.0806ZM3.5 8.29032C3.5 5.64604 5.64603 3.5 8.2963 3.5V0.5C3.99186 0.5 0.5 3.9865 0.5 8.29032H3.5ZM8.2963 3.5C10.9466 3.5 13.0926 5.64604 13.0926 8.29032H16.0926C16.0926 3.9865 12.6007 0.5 8.2963 0.5V3.5ZM40.7963 8.29032C40.7963 10.9346 38.6503 13.0806 36 13.0806V16.0806C40.3044 16.0806 43.7963 12.5941 43.7963 8.29032H40.7963ZM36 13.0806C33.3497 13.0806 31.2037 10.9346 31.2037 8.29032H28.2037C28.2037 12.5941 31.6956 16.0806 36 16.0806V13.0806ZM31.2037 8.29032C31.2037 5.64604 33.3497 3.5 36 3.5V0.5C31.6956 0.5 28.2037 3.9865 28.2037 8.29032H31.2037ZM36 3.5C38.6503 3.5 40.7963 5.64604 40.7963 8.29032H43.7963C43.7963 3.9865 40.3044 0.5 36 0.5V3.5ZM68.5 8.29032C68.5 10.9346 66.354 13.0806 63.7037 13.0806V16.0806C68.0081 16.0806 71.5 12.5941 71.5 8.29032H68.5ZM63.7037 13.0806C61.0534 13.0806 58.9074 10.9346 58.9074 8.29032H55.9074C55.9074 12.5941 59.3993 16.0806 63.7037 16.0806V13.0806ZM58.9074 8.29032C58.9074 5.64604 61.0534 3.5 63.7037 3.5V0.5C59.3993 0.5 55.9074 3.9865 55.9074 8.29032H58.9074ZM63.7037 3.5C66.354 3.5 68.5 5.64604 68.5 8.29032H71.5C71.5 3.9865 68.0081 0.5 63.7037 0.5V3.5ZM13.0926 73.7097C13.0926 76.354 10.9466 78.5 8.2963 78.5V81.5C12.6007 81.5 16.0926 78.0135 16.0926 73.7097H13.0926ZM8.2963 78.5C5.64603 78.5 3.5 76.354 3.5 73.7097H0.5C0.5 78.0135 3.99186 81.5 8.2963 81.5V78.5ZM3.5 73.7097C3.5 71.0654 5.64603 68.9194 8.2963 68.9194V65.9194C3.99186 65.9194 0.5 69.4059 0.5 73.7097H3.5ZM8.2963 68.9194C10.9466 68.9194 13.0926 71.0654 13.0926 73.7097H16.0926C16.0926 69.4059 12.6007 65.9194 8.2963 65.9194V68.9194ZM40.7963 73.7097C40.7963 76.354 38.6503 78.5 36 78.5V81.5C40.3044 81.5 43.7963 78.0135 43.7963 73.7097H40.7963ZM36 78.5C33.3497 78.5 31.2037 76.354 31.2037 73.7097H28.2037C28.2037 78.0135 31.6956 81.5 36 81.5V78.5ZM31.2037 73.7097C31.2037 71.0654 33.3497 68.9194 36 68.9194V65.9194C31.6956 65.9194 28.2037 69.4059 28.2037 73.7097H31.2037ZM36 68.9194C38.6503 68.9194 40.7963 71.0654 40.7963 73.7097H43.7963C43.7963 69.4059 40.3044 65.9194 36 65.9194V68.9194ZM68.5 73.7097C68.5 76.354 66.354 78.5 63.7037 78.5V81.5C68.0081 81.5 71.5 78.0135 71.5 73.7097H68.5ZM63.7037 78.5C61.0534 78.5 58.9074 76.354 58.9074 73.7097H55.9074C55.9074 78.0135 59.3993 81.5 63.7037 81.5V78.5ZM58.9074 73.7097C58.9074 71.0654 61.0534 68.9194 63.7037 68.9194V65.9194C59.3993 65.9194 55.9074 69.4059 55.9074 73.7097H58.9074ZM63.7037 68.9194C66.354 68.9194 68.5 71.0654 68.5 73.7097H71.5C71.5 69.4059 68.0081 65.9194 63.7037 65.9194V68.9194ZM34.7408 42.5H37.2593V39.5H34.7408V42.5ZM29.7037 42.5H32.2222V39.5H29.7037V42.5ZM39.7778 42.5H42.2963V39.5H39.7778V42.5Z" fill="white"/>
</svg>
