<svg width="74" height="74" viewBox="0 0 74 74" fill="none" xmlns="http://www.w3.org/2000/svg">
<path d="M44.8979 30.2383H51.6873V46.0341H22.3129V30.2383H29.1022M18.9321 35.8638H12.1704C10.9234 35.8638 9.92578 34.8662 9.92578 33.6191V23.4489M18.9321 40.3808H12.1704C10.9234 40.3808 9.92578 41.3784 9.92578 42.6254V52.7957M55.0678 35.8638H61.8294C63.0765 35.8638 64.0741 34.8662 64.0741 33.6191V23.4489M21.2041 64.1021H32.4828C33.7298 64.1021 34.7274 63.1045 34.7274 61.8575V49.4426M52.8233 64.1021H41.5446C40.2976 64.1021 39.2999 63.1045 39.2999 61.8575V49.4426M55.0678 40.3808H61.8294C63.0765 40.3808 64.0741 41.3784 64.0741 42.6254V52.7957M35.8637 38.1361H38.1361M31.3469 38.1361H33.6193M40.381 38.1361H42.6533M47.1701 12.1702C47.1701 17.7957 36.9998 33.6192 36.9998 33.6192C36.9998 33.6192 26.8296 17.768 26.8296 12.1702C26.8296 6.57245 31.3744 2 36.9998 2C42.6253 2 47.1701 6.54474 47.1701 12.1702ZM42.6533 12.1702C42.6533 15.2924 40.1223 17.8234 37.0001 17.8234C33.878 17.8234 31.3469 15.2924 31.3469 12.1702C31.3469 9.04806 33.878 6.51703 37.0001 6.51703C40.1223 6.51703 42.6533 9.04806 42.6533 12.1702ZM17.7957 12.1702C17.7957 16.5321 14.2597 20.0681 9.89785 20.0681C5.53599 20.0681 2 16.5321 2 12.1702C2 7.80838 5.53599 4.27238 9.89785 4.27238C14.2597 4.27238 17.7957 7.80838 17.7957 12.1702ZM17.7957 64.1021C17.7957 68.464 14.2597 72 9.89785 72C5.53599 72 2 68.464 2 64.1021C2 59.7403 5.53599 56.2043 9.89785 56.2043C14.2597 56.2043 17.7957 59.7403 17.7957 64.1021ZM72 12.1702C72 16.5321 68.464 20.0681 64.1022 20.0681C59.7403 20.0681 56.2043 16.5321 56.2043 12.1702C56.2043 7.80838 59.7403 4.27238 64.1022 4.27238C68.464 4.27238 72 7.80838 72 12.1702ZM72 64.1021C72 68.464 68.464 72 64.1022 72C59.7403 72 56.2043 68.464 56.2043 64.1021C56.2043 59.7403 59.7403 56.2043 64.1022 56.2043C68.464 56.2043 72 59.7403 72 64.1021ZM67.4827 12.1703C67.4827 14.0374 65.9691 15.5511 64.1019 15.5511C62.2347 15.5511 60.7211 14.0374 60.7211 12.1703C60.7211 10.3031 62.2347 8.78942 64.1019 8.78942C65.9691 8.78942 67.4827 10.3031 67.4827 12.1703ZM67.4827 64.1021C67.4827 65.9693 65.9691 67.483 64.1019 67.483C62.2347 67.483 60.7211 65.9693 60.7211 64.1021C60.7211 62.235 62.2347 60.7213 64.1019 60.7213C65.9691 60.7213 67.4827 62.235 67.4827 64.1021ZM13.2784 12.1703C13.2784 14.0374 11.7648 15.5511 9.8976 15.5511C8.03042 15.5511 6.51677 14.0374 6.51677 12.1703C6.51677 10.3031 8.03042 8.78942 9.8976 8.78942C11.7648 8.78942 13.2784 10.3031 13.2784 12.1703ZM13.2784 64.1021C13.2784 65.9693 11.7648 67.483 9.8976 67.483C8.03042 67.483 6.51677 65.9693 6.51677 64.1021C6.51677 62.235 8.03042 60.7213 9.8976 60.7213C11.7648 60.7213 13.2784 62.235 13.2784 64.1021Z" stroke="white" stroke-width="3" stroke-miterlimit="10"/>
</svg>
