<svg width="324" height="391" viewBox="0 0 324 391" fill="none" xmlns="http://www.w3.org/2000/svg">
<path d="M269.034 60.1383L244.918 46.8711L222.252 62.5191L222.283 63.2847L246.41 76.5519L269.075 60.9039" fill="#202020"/>
<path d="M244.917 46.8714L244.709 42.6868L243.55 19.6973L220.885 35.3452L220.916 36.1109L222.252 62.5194L244.917 46.8714Z" fill="#1064C6"/>
<path d="M215.909 271.374L256.002 243.686L255.939 242.333L213.269 218.861L173.166 246.539L175.587 294.616L173.239 247.892L215.909 271.374Z" fill="#202020"/>
<path d="M173.236 247.893L175.584 294.616L175.657 295.969L218.327 319.452L216.272 278.779L215.906 271.375L173.236 247.893Z" fill="#0F3F7E"/>
<path d="M215.907 271.376L216.272 278.78L218.328 319.452L258.421 291.764L258.348 290.411L256 243.688L215.907 271.376Z" fill="#1064C6"/>
<path d="M215.833 269.876L193.157 285.524L193.199 286.289L217.326 299.567L239.991 283.919L238.624 256.734L239.949 283.153L215.833 269.876Z" fill="#202020"/>
<path d="M239.952 283.153L238.627 256.734L238.585 255.968L214.469 242.701L215.617 265.691L215.836 269.875L239.952 283.153Z" fill="#0F3F7E"/>
<path d="M215.832 269.875L215.613 265.691L214.465 242.701L191.8 258.349L191.831 259.115L193.156 285.523L215.832 269.875Z" fill="#1064C6"/>
<path d="M298.669 267.169L338.762 239.481L338.699 238.128L296.029 214.656L255.937 242.334L258.347 290.41L255.999 243.687L298.669 267.169Z" fill="#202020"/>
<path d="M256.002 243.688L258.35 290.411L258.423 291.764L301.093 315.246L299.048 274.574L298.672 267.17L256.002 243.688Z" fill="#0F3F7E"/>
<path d="M298.67 267.169L299.046 274.573L301.091 315.245L341.184 287.568L341.11 286.204L338.762 239.48L298.67 267.169Z" fill="#1064C6"/>
<path d="M298.598 265.669L275.933 281.317L275.964 282.082L300.09 295.36L322.756 279.712L321.389 252.527L322.714 278.946L298.598 265.669Z" fill="#202020"/>
<path d="M322.715 278.946L321.389 252.527L321.347 251.761L297.231 238.494L298.39 261.484L298.599 265.668L322.715 278.946Z" fill="#0F3F7E"/>
<path d="M298.597 265.668L298.388 261.484L297.23 238.494L274.564 254.142L274.596 254.908L275.932 281.316L298.597 265.668Z" fill="#1064C6"/>
<path d="M260.989 342.923L301.092 315.246L301.019 313.893L258.349 290.41L218.256 318.098L220.677 366.175L218.329 319.451L260.989 342.923Z" fill="#202020"/>
<path d="M218.329 319.451L220.677 366.175L220.74 367.528L263.41 391L261.365 350.328L260.989 342.923L218.329 319.451Z" fill="#0F3F7E"/>
<path d="M260.986 342.924L261.362 350.328L263.407 391L303.5 363.323L303.437 361.97L301.089 315.246L260.986 342.924Z" fill="#1064C6"/>
<path d="M260.915 341.434L238.249 357.082L238.291 357.848L262.407 371.115L285.072 355.467L283.705 328.293L285.041 354.702L260.915 341.434Z" fill="#202020"/>
<path d="M285.041 354.702L283.706 328.293L283.674 327.528L259.548 314.25L260.706 337.25L260.915 341.435L285.041 354.702Z" fill="#0F3F7E"/>
<path d="M260.915 341.435L260.706 337.25L259.548 314.25L236.882 329.898L236.924 330.664L238.249 357.083L260.915 341.435Z" fill="#1064C6"/>
<path d="M208.498 124.062L248.591 96.3842L248.528 95.0313L205.858 71.5488L165.755 99.2264L168.176 147.314L165.828 100.59L208.498 124.062Z" fill="#202020"/>
<path d="M165.828 100.59L168.176 147.313L168.249 148.666L210.919 172.138L208.874 131.466L208.498 124.062L165.828 100.59Z" fill="#0F3F7E"/>
<path d="M208.499 124.062L208.875 131.467L210.92 172.139L251.013 144.461L250.94 143.108L248.592 96.3848L208.499 124.062Z" fill="#1064C6"/>
<path d="M208.424 122.573L185.759 138.221L185.79 138.987L209.917 152.254L232.582 136.606L231.215 109.432L232.541 135.84L208.424 122.573Z" fill="#202020"/>
<path d="M232.541 135.841L231.216 109.432L231.174 108.666L207.058 95.3887L208.206 118.389L208.425 122.573L232.541 135.841Z" fill="#0F3F7E"/>
<path d="M208.427 122.573L208.208 118.389L207.06 95.3887L184.395 111.037L184.426 111.802L185.762 138.221L208.427 122.573Z" fill="#1064C6"/>
<path d="M291.263 119.856L331.356 92.1784L331.293 90.8255L288.623 67.3535L248.53 95.0311L250.941 143.108L248.593 96.384L291.263 119.856Z" fill="#202020"/>
<path d="M248.591 96.3848L250.939 143.108L251.012 144.461L293.682 167.933L291.637 127.261L291.261 119.857L248.591 96.3848Z" fill="#0F3F7E"/>
<path d="M291.262 119.855L291.637 127.26L293.683 167.932L333.775 140.254L333.713 138.901L331.354 92.1777L291.262 119.855Z" fill="#1064C6"/>
<path d="M291.19 118.366L268.524 134.014L268.556 134.78L292.682 148.047L315.348 132.399L313.981 105.225L315.306 131.633L291.19 118.366Z" fill="#202020"/>
<path d="M315.303 131.634L313.978 105.225L313.936 104.459L289.82 91.1816L290.979 114.182L291.187 118.366L315.303 131.634Z" fill="#0F3F7E"/>
<path d="M291.19 118.366L290.981 114.182L289.823 91.1816L267.157 106.83L267.189 107.595L268.524 134.014L291.19 118.366Z" fill="#1064C6"/>
<path d="M42.7328 132.484L82.8359 104.806L82.7629 103.453L40.0927 79.9707L0 107.648L2.421 155.735L0.0730475 109.012L42.7328 132.484Z" fill="#202020"/>
<path d="M0.0732422 109.012L2.4212 155.735L2.48381 157.088L45.154 180.56L43.1087 139.888L42.733 132.484L0.0732422 109.012Z" fill="#0F3F7E"/>
<path d="M42.7334 132.484L43.1091 139.889L45.1544 180.561L85.2471 152.883L85.1844 151.53L82.8365 104.807L42.7334 132.484Z" fill="#1064C6"/>
<path d="M42.6597 130.995L19.9941 146.643L20.0359 147.408L44.152 160.676L66.8176 145.028L65.4506 117.854L66.7863 144.262L42.6597 130.995Z" fill="#202020"/>
<path d="M66.7856 144.261L65.4499 117.852L65.4186 117.086L41.292 103.809L42.4503 126.809L42.659 130.993L66.7856 144.261Z" fill="#0F3F7E"/>
<path d="M42.6586 130.993L42.4499 126.809L41.2916 103.809L18.626 119.457L18.6677 120.222L19.993 146.641L42.6586 130.993Z" fill="#1064C6"/>
<path d="M253.579 195.61L293.683 167.932L293.61 166.579L250.939 143.107L210.847 170.785L213.268 218.862L210.92 172.138L253.579 195.61Z" fill="#202020"/>
<path d="M210.921 172.139L213.269 218.862L213.331 220.215L256.002 243.687L253.956 203.026L253.581 195.611L210.921 172.139Z" fill="#0F3F7E"/>
<path d="M253.581 195.609L253.957 203.024L256.002 243.686L296.095 216.008L296.032 214.655L293.684 167.932L253.581 195.609Z" fill="#1064C6"/>
<path d="M253.506 194.12L230.841 209.768L230.883 210.533L254.999 223.801L277.664 208.153L276.297 180.979L277.633 207.387L253.506 194.12Z" fill="#202020"/>
<path d="M277.633 207.389L276.298 180.98L276.266 180.214L252.14 166.947L253.298 189.937L253.507 194.121L277.633 207.389Z" fill="#0F3F7E"/>
<path d="M253.505 194.121L253.297 189.937L252.138 166.947L229.473 182.595L229.514 183.361L230.84 209.769L253.505 194.121Z" fill="#1064C6"/>
<path d="M88.0521 204.022L128.145 176.344L128.082 174.991L85.412 151.52L45.3193 179.197L47.7299 227.274L45.3819 180.55L88.0521 204.022Z" fill="#202020"/>
<path d="M45.3828 180.549L47.7308 227.272L47.8038 228.625L90.474 252.097L88.4287 211.425L88.053 204.021L45.3828 180.549Z" fill="#0F3F7E"/>
<path d="M88.0537 204.021L88.4294 211.426L90.4747 252.098L130.567 224.42L130.505 223.067L128.146 176.344L88.0537 204.021Z" fill="#1064C6"/>
<path d="M87.9791 202.532L65.3135 218.18L65.3552 218.946L89.4713 232.213L112.137 216.565L110.77 189.391L112.095 215.799L87.9791 202.532Z" fill="#202020"/>
<path d="M112.097 215.799L110.772 189.39L110.73 188.625L86.6143 175.357L87.7726 198.347L87.9813 202.532L112.097 215.799Z" fill="#0F3F7E"/>
<path d="M87.9809 202.532L87.7722 198.347L86.6138 175.357L63.9482 191.005L63.9796 191.761L65.3153 218.18L87.9809 202.532Z" fill="#1064C6"/>
<path d="M170.818 199.815L210.921 172.137L210.848 170.784L168.178 147.312L128.085 174.99L130.506 223.067L128.148 176.343L170.818 199.815Z" fill="#202020"/>
<path d="M128.148 176.344L130.507 223.067L130.569 224.42L173.24 247.892L171.194 207.231L170.819 199.816L128.148 176.344Z" fill="#0F3F7E"/>
<path d="M170.815 199.816L171.191 207.231L173.236 247.893L213.329 220.215L213.266 218.862L210.919 172.139L170.815 199.816Z" fill="#1064C6"/>
<path d="M170.745 198.327L148.079 213.975L148.121 214.74L172.237 228.008L194.903 212.36L193.536 185.186L194.861 211.594L170.745 198.327Z" fill="#202020"/>
<path d="M194.86 211.594L193.535 185.185L193.504 184.42L169.377 171.152L170.535 194.142L170.744 198.327L194.86 211.594Z" fill="#0F3F7E"/>
<path d="M170.744 198.327L170.535 194.142L169.377 171.152L146.711 186.8L146.753 187.566L148.078 213.975L170.744 198.327Z" fill="#1064C6"/>
<path d="M133.145 275.569L173.237 247.891L173.164 246.538L130.504 223.066L90.4014 250.744L92.8224 298.821L90.4744 252.097L133.145 275.569Z" fill="#202020"/>
<path d="M90.4756 252.098L92.8235 298.821L92.8862 300.174L135.556 323.657L133.511 282.985L133.146 275.57L90.4756 252.098Z" fill="#0F3F7E"/>
<path d="M133.146 275.57L133.511 282.985L135.556 323.657L175.659 295.969L175.586 294.616L173.238 247.893L133.146 275.57Z" fill="#1064C6"/>
<path d="M133.061 274.081L110.396 289.729L110.437 290.494L134.553 303.762L157.219 288.124L155.852 260.939L157.188 287.359L133.061 274.081Z" fill="#202020"/>
<path d="M157.188 287.358L155.852 260.939L155.821 260.173L131.694 246.906L132.853 269.896L133.061 274.08L157.188 287.358Z" fill="#0F3F7E"/>
<path d="M133.063 274.08L132.854 269.896L131.696 246.906L109.03 262.554L109.072 263.32L110.397 289.729L133.063 274.08Z" fill="#1064C6"/>
<path d="M80.6439 56.7181L120.737 29.03L120.674 27.677L78.0038 4.20508L37.9111 31.8827L40.3217 79.9593L37.9737 33.2356L80.6439 56.7181Z" fill="#202020"/>
<path d="M37.9746 33.2363L40.3226 79.96L40.3956 81.3129L83.0658 104.795L81.0205 64.1232L80.6448 56.7188L37.9746 33.2363Z" fill="#0F3F7E"/>
<path d="M80.6455 56.7193L81.0212 64.1238L83.0665 104.796L123.159 77.1078L123.097 75.7549L120.738 29.0312L80.6455 56.7193Z" fill="#1064C6"/>
<path d="M80.5709 55.2195L57.9053 70.8674L57.9366 71.6331L82.0631 84.9107L104.729 69.2628L103.362 42.0781L104.687 68.4972L80.5709 55.2195Z" fill="#202020"/>
<path d="M104.687 68.4968L103.362 42.0778L103.32 41.3121L79.2041 28.0449L80.3624 51.0344L80.5711 55.2191L104.687 68.4968Z" fill="#0F3F7E"/>
<path d="M80.5727 55.2191L80.364 51.0344L79.2057 28.0449L56.54 43.6929L56.5818 44.4585L57.9071 70.8671L80.5727 55.2191Z" fill="#1064C6"/>
<path d="M163.407 52.513L203.499 24.8249L203.437 23.472L160.766 0L120.674 27.6776L123.095 75.7542L120.736 29.0305L163.407 52.513Z" fill="#202020"/>
<path d="M120.737 29.0312L123.096 75.7549L123.158 77.1078L165.829 100.59L163.783 59.9181L163.408 52.5137L120.737 29.0312Z" fill="#0F3F7E"/>
<path d="M163.407 52.5123L163.783 59.9168L165.828 100.589L205.921 72.9113L205.858 71.5479L203.5 24.8242L163.407 52.5123Z" fill="#1064C6"/>
<path d="M163.334 51.0144L140.668 66.6624L140.71 67.428L164.826 80.7057L187.491 65.0577L186.124 37.873L187.45 64.2921L163.334 51.0144Z" fill="#202020"/>
<path d="M187.449 64.2917L186.124 37.8727L186.082 37.1071L161.966 23.8398L163.124 46.8294L163.333 51.014L187.449 64.2917Z" fill="#0F3F7E"/>
<path d="M163.335 51.014L163.127 46.8293L161.968 23.8398L139.303 39.4878L139.344 40.2534L140.67 66.662L163.335 51.014Z" fill="#1064C6"/>
<path d="M125.735 128.267L165.828 100.589L165.755 99.2259L123.095 75.7539L82.9922 103.432L85.4132 151.519L83.0652 104.795L125.735 128.267Z" fill="#202020"/>
<path d="M83.0664 104.795L85.4144 151.519L85.4874 152.872L128.147 176.343L126.102 135.671L125.737 128.267L83.0664 104.795Z" fill="#0F3F7E"/>
<path d="M125.736 128.267L126.102 135.672L128.147 176.344L168.25 148.666L168.177 147.314L165.829 100.59L125.736 128.267Z" fill="#1064C6"/>
<path d="M125.653 126.778L102.987 142.426L103.029 143.192L127.145 156.459L149.821 140.811L148.454 113.637L149.779 140.045L125.653 126.778Z" fill="#202020"/>
<path d="M149.779 140.046L148.454 113.637L148.412 112.871L124.296 99.5938L125.444 122.583L125.652 126.778L149.779 140.046Z" fill="#0F3F7E"/>
<path d="M125.652 126.778L125.443 122.583L124.295 99.5938L101.619 115.242L101.661 116.007L102.986 142.426L125.652 126.778Z" fill="#1064C6"/>
</svg>
