<svg width="48" height="46" viewBox="0 0 48 46" fill="none" xmlns="http://www.w3.org/2000/svg">
<path d="M24 8.6C25.0611 8.6 25.92 7.75 25.92 6.7V1.9C25.92 0.85 25.0611 0 24 0C22.9389 0 22.08 0.85 22.08 1.9V6.7C22.08 7.75 22.9389 8.6 24 8.6Z" fill="#1064C6"/>
<path d="M13.7432 11.7C13.7432 11.2 13.5411 10.7 13.1874 10.35L9.75158 6.95C8.99368 6.2 7.78105 6.2 7.02316 6.95C6.66947 7.3 6.46737 7.8 6.46737 8.3C6.46737 8.8 6.66947 9.3 7.02316 9.65L10.4589 13.05C10.8126 13.4 11.3179 13.6 11.8232 13.6C12.3284 13.6 12.8337 13.4 13.1874 13.05C13.5411 12.7 13.7432 12.2 13.7432 11.7Z" fill="#1064C6"/>
<path d="M6.77053 21.85H1.92C0.858948 21.85 0 22.7 0 23.75C0 24.8 0.858948 25.65 1.92 25.65H6.77053C7.83158 25.65 8.69053 24.8 8.69053 23.75C8.69053 22.7 7.83158 21.85 6.77053 21.85Z" fill="#1064C6"/>
<path d="M46.08 21.85H41.2295C40.1684 21.85 39.3095 22.7 39.3095 23.75C39.3095 24.8 40.1684 25.65 41.2295 25.65H46.08C47.141 25.65 48 24.8 48 23.75C48 22.7 47.141 21.85 46.08 21.85Z" fill="#1064C6"/>
<path d="M41.5326 8.3C41.5326 7.8 41.3305 7.3 40.9768 6.95C40.2189 6.2 39.0063 6.2 38.2484 6.95L34.8126 10.35C34.4589 10.7 34.2568 11.2 34.2568 11.7C34.2568 12.2 34.4589 12.7 34.8126 13.05C35.1663 13.4 35.6716 13.6 36.1768 13.6C36.6821 13.6 37.1874 13.4 37.5411 13.05L40.9768 9.65C41.3305 9.3 41.5326 8.8 41.5326 8.3Z" fill="#1064C6"/>
<path d="M31.3768 14.6C29.2547 12.95 26.6779 12.05 23.9495 12.05C22.9895 12.05 22.0295 12.15 21.12 12.4C16.8758 13.4 13.4905 16.7 12.4295 20.85C11.2674 25.55 12.8842 30.25 16.7242 33.15C17.2295 33.55 17.5326 34.2 17.5326 34.95V36.45H30.4168V34.85C30.4168 34.15 30.72 33.5 31.1747 33.15C34.1558 30.9 35.8737 27.5 35.8737 23.85C35.9242 20.2 34.2568 16.85 31.3768 14.6ZM28.8505 22.9L24.1011 27.6C23.7979 27.9 23.3937 28.05 22.9895 28.05C22.5853 28.05 22.1811 27.9 21.8779 27.6L19.1495 25C18.5432 24.4 18.5432 23.4 19.1495 22.75C19.7558 22.15 20.7663 22.15 21.4232 22.75L22.9895 24.3L26.6274 20.7C27.2337 20.1 28.2442 20.1 28.9011 20.7C29.5074 21.3 29.5074 22.3 28.8505 22.9Z" fill="#1064C6"/>
<path d="M17.5832 42C17.5832 42.95 18.3411 43.7 19.3011 43.7H21.4737L21.6758 44.25C21.9789 45.3 22.9389 46 24 46C25.0611 46 26.0211 45.3 26.3242 44.25L26.5263 43.7H28.6989C29.6589 43.7 30.4168 42.95 30.4168 42V39.6H17.5832V42Z" fill="#1064C6"/>
</svg>
