<svg width="72" height="72" viewBox="0 0 72 72" fill="none" xmlns="http://www.w3.org/2000/svg">
<path d="M22.8387 57.9355L19.5484 61.2258L10.7742 52.4516L14.0645 49.1613M8.58065 55.7419C2 62.3226 2 70 2 70C2 70 9.67742 70 16.2581 63.4194M60.129 28.3226L41.4839 70H30.5161V61.2258M43.6774 11.871L2 30.5161V41.4839H10.7742M67.8065 12.9677C62.9587 12.9677 59.0323 9.04129 59.0323 4.19355M25.0323 60.129L11.871 46.9677C11.871 46.9677 39.2903 2 70 2C70 32.7097 25.0323 60.129 25.0323 60.129ZM55.7419 20.6452C55.7419 23.0681 53.7778 25.0323 51.3548 25.0323C48.9319 25.0323 46.9677 23.0681 46.9677 20.6452C46.9677 18.2222 48.9319 16.2581 51.3548 16.2581C53.7778 16.2581 55.7419 18.2222 55.7419 20.6452ZM45.871 30.5161C45.871 32.9391 43.9068 34.9032 41.4839 34.9032C39.0609 34.9032 37.0968 32.9391 37.0968 30.5161C37.0968 28.0932 39.0609 26.129 41.4839 26.129C43.9068 26.129 45.871 28.0932 45.871 30.5161ZM36 40.3871C36 42.81 34.0358 44.7742 31.6129 44.7742C29.19 44.7742 27.2258 42.81 27.2258 40.3871C27.2258 37.9642 29.19 36 31.6129 36C34.0358 36 36 37.9642 36 40.3871Z" stroke="white" stroke-width="3" stroke-miterlimit="10" stroke-linejoin="round"/>
</svg>
