<svg width="72" height="72" viewBox="0 0 72 72" fill="none" xmlns="http://www.w3.org/2000/svg">
<path d="M36 48.8965V70M46.9375 48.8965L53.5 68.8276V70M25.0625 48.8965L18.5 68.8276V70M65.5312 14.8966V48.8966H6.46875V14.8966M32.7188 6.68965H39.2812M1 70H71M34.9062 24.2759V21.931C34.9062 18.6952 32.4562 16.069 29.4375 16.069C26.4188 16.069 23.9688 18.6952 23.9688 21.931V28.9655C23.9688 32.2014 21.5187 34.8276 18.5 34.8276H11.9375M60.0625 25.4483H51.3125C48.2938 25.4483 45.8438 28.0745 45.8438 31.3104V38.3448C45.8438 41.5807 43.3937 44.2069 40.375 44.2069C37.3563 44.2069 34.9062 41.5807 34.9062 38.3448V36M60.0625 25.4483L55.6875 30.1379M60.0625 25.4483L55.6875 20.7586M34.9062 26.6207V28.9655M34.9062 31.3103V33.6552M9.75 16.069H11.9375M60.0625 16.069H62.25M60.0625 44.2069H62.25M9.75 44.2069H11.9375M2.09375 11.3793V6.68966H28.3438L30.5312 2H41.4688L43.6562 6.68966H69.9062V11.3793H2.09375ZM30.5312 21.931C30.5312 22.5785 30.0416 23.1034 29.4375 23.1034C28.8334 23.1034 28.3438 22.5785 28.3438 21.931C28.3438 21.2835 28.8334 20.7586 29.4375 20.7586C30.0416 20.7586 30.5312 21.2835 30.5312 21.931ZM41.4688 38.3448C41.4688 38.9923 40.9791 39.5172 40.375 39.5172C39.7709 39.5172 39.2812 38.9923 39.2812 38.3448C39.2812 37.6973 39.7709 37.1724 40.375 37.1724C40.9791 37.1724 41.4688 37.6973 41.4688 38.3448Z" stroke="white" stroke-width="3" stroke-miterlimit="10" stroke-linejoin="round"/>
</svg>
