<svg width="16" height="22" viewBox="0 0 16 22" fill="none" xmlns="http://www.w3.org/2000/svg">
<path d="M8.01612 0C3.60238 0 0 3.30894 0 7.36314C0 7.48238 0 7.63144 0 7.75068L0.032454 8.34688C0.16227 8.9729 0.454355 10.0461 1.10343 11.5664C2.07705 13.7724 4.05674 17.3198 8.04857 22C9.9309 19.6152 15.4156 12.4011 15.9024 8.61518V8.58537C15.9673 8.19783 15.9998 7.78049 15.9998 7.36314C16.0322 3.30894 12.4299 0 8.01612 0ZM7.98366 10.6423C6.03643 10.6423 4.44619 9.18157 4.44619 7.39295C4.44619 5.60434 6.03643 4.14363 7.98366 4.14363C9.9309 4.14363 11.5211 5.60434 11.5211 7.39295C11.5211 9.18157 9.9309 10.6423 7.98366 10.6423Z" fill="white"/>
</svg>
