<svg width="103" height="118" viewBox="0 0 103 118" fill="none" xmlns="http://www.w3.org/2000/svg">
<path d="M36.8333 57.1613V93.9355C36.8333 97.999 33.5517 101.29 29.5 101.29C25.4483 101.29 22.1667 97.999 22.1667 93.9355V57.1613M29.5 73.7097V77.3871M29.5 81.0645V84.7419M29.5 88.4194V92.0968M58.8333 13.0323H101V99.4516M101 99.4516L84.5 116M101 99.4516H84.5V116M84.5 116H29.5V106.806M42.3333 29.5806V42.4516H16.6667V16.7097H36.8333M42.3333 20.3871L29.5 33.2581L24 27.7419M91.8333 62.6774H57M91.8333 70.0323H57M91.8333 77.3871H57M91.8333 84.7419H57M75.3333 99.4516H57M91.8333 92.0968H57M62.5 33.2581H90V51.6452H57M91.8333 25.9032H88.1667M84.5 25.9032H80.8333M77.1667 25.9032H73.5M57 29.5806C57 44.813 44.6878 57.1613 29.5 57.1613C14.3122 57.1613 2 44.813 2 29.5806C2 14.3483 14.3122 2 29.5 2C44.6878 2 57 14.3483 57 29.5806ZM44.1667 62.6774H51.5V70.0323H44.1667V62.6774ZM44.1667 77.3871H51.5V84.7419H44.1667V77.3871ZM44.1667 92.0968H51.5V99.4516H44.1667V92.0968Z" stroke="#1064C6" stroke-width="4" stroke-miterlimit="10"/>
</svg>
