<svg width="20" height="14" viewBox="0 0 20 14" fill="none" xmlns="http://www.w3.org/2000/svg">
<path d="M1.5 0C0.668998 0 0 0.668998 0 1.5V12.5C0 13.331 0.668998 14 1.5 14H18.5C19.331 14 20 13.331 20 12.5V1.5C20 0.668998 19.331 0 18.5 0H1.5ZM2.6875 2.24219C2.76327 2.23373 2.83996 2.24271 2.91173 2.26843C2.98349 2.29416 3.04843 2.33596 3.10156 2.39062L9.28906 8.46095C9.67617 8.84083 10.3072 8.8409 10.6953 8.46095L16.8984 2.39062C16.9448 2.34295 17.0002 2.305 17.0614 2.27899C17.1226 2.25299 17.1883 2.23945 17.2548 2.23917C17.3213 2.23888 17.3872 2.25186 17.4486 2.27734C17.51 2.30283 17.5657 2.34031 17.6125 2.38759C17.6593 2.43486 17.6961 2.49098 17.7209 2.55267C17.7457 2.61436 17.758 2.68039 17.757 2.74687C17.7559 2.81336 17.7417 2.87896 17.715 2.93987C17.6883 3.00077 17.6497 3.05574 17.6016 3.10156L13.5469 7.07812L17.5938 10.8828C17.6894 10.9742 17.7451 11.0997 17.7484 11.2319C17.7518 11.3641 17.7026 11.4923 17.6117 11.5884C17.5208 11.6845 17.3955 11.7406 17.2633 11.7446C17.1311 11.7485 17.0027 11.6999 16.9062 11.6094L12.8359 7.77345L11.3984 9.1797C10.6235 9.93828 9.36048 9.93978 8.58594 9.1797L7.16406 7.78125L3.09375 11.6094C2.99728 11.6999 2.86889 11.7485 2.73668 11.7446C2.60446 11.7406 2.47918 11.6845 2.38827 11.5884C2.29735 11.4923 2.2482 11.3641 2.25157 11.2319C2.25494 11.0997 2.31056 10.9742 2.40625 10.8828L6.44531 7.07812L2.39844 3.10156C2.32941 3.03594 2.28056 2.95197 2.25763 2.85953C2.2347 2.76708 2.23866 2.67 2.26902 2.57973C2.29939 2.48945 2.3549 2.40973 2.42904 2.34993C2.50317 2.29013 2.59284 2.25275 2.6875 2.24219Z" fill="white"/>
</svg>
