<svg width="74" height="72" viewBox="0 0 74 72" fill="none" xmlns="http://www.w3.org/2000/svg">
<path d="M31.3514 58.685H33.6218M26.838 58.685H29.081M35.8645 58.685H38.1349M40.3783 58.685H42.6487M44.8915 58.685H47.1619M36.9864 55.2796V15.5946H61.8243M32.4727 5.40549V2H57.3105M32.4727 55.2796V12.1891M46.0409 55.2795V38.2795H51.6759M41.5 12.189V8.81093H16.6896M41.4996 55.2796V19.0001M27.9594 55.2795V33.748H14.419M7.63507 8.81093H9.90549M12.1482 8.81093H14.4187M59.5812 2H61.8243M64.0946 2H66.3376M29.0807 24.6575H12.1483C10.2882 24.6575 8.75637 26.168 8.75637 28.063V58.6576H24.5672M49.4049 58.685H65.2158V28.063C65.2158 26.1955 63.7113 24.6575 61.8239 24.6575H44.8915M67.4865 70H6.51348L2 65.4685V63.2165H29.0809L31.3513 65.4685H42.6487L44.8918 63.2165H72V65.4685L67.4865 70Z" stroke="white" stroke-width="3" stroke-miterlimit="10"/>
</svg>
