<svg width="18" height="22" viewBox="0 0 18 22" fill="none" xmlns="http://www.w3.org/2000/svg">
<path d="M6.75069 3.11577C6.75892 3.13028 6.76616 3.14267 6.77439 3.15687C6.77966 3.17107 6.74246 3.10338 6.75069 3.11577ZM5.63277 0.136752C5.25716 -0.0252232 4.73968 -0.0711568 4.31601 0.153977L3.39724 0.640206C3.37848 0.651387 3.35807 0.662568 3.33865 0.674958C1.12683 2.17021 0.110291 4.24779 0.00955868 6.39124C-0.0901856 8.53379 0.686701 10.7449 1.96527 12.6778L4.33017 16.4364C4.33148 16.4364 4.33346 16.4379 4.33346 16.4379L4.33872 16.4473C5.51985 18.4273 7.21584 20.1446 9.28347 21.1346C11.3544 22.1276 13.8253 22.3558 16.3406 21.3441C16.3614 21.3344 16.3818 21.3265 16.4005 21.3153L17.3193 20.8291C17.743 20.6043 17.9573 20.1685 17.9932 19.7887C18.0277 19.4097 17.9438 19.0447 17.8184 18.6805C17.5682 17.9628 17.1383 17.266 16.7814 16.7873C16.1023 15.7124 15.4492 14.9632 14.693 14.5477C13.9316 14.1274 13.0181 14.1367 12.2722 14.5317L11.1282 15.1376C10.7889 15.3174 10.3978 15.2951 9.983 15.1334C9.56954 14.9708 9.1857 14.6472 9.04316 14.4202L6.22432 9.93778C6.08013 9.71113 5.96591 9.24364 6.02055 8.83447C6.07388 8.42349 6.25197 8.10105 6.59136 7.92155L7.73332 7.31535C8.47729 6.92038 8.94408 6.19814 8.92861 5.38252C8.91445 4.57234 8.53391 3.67966 7.85677 2.59842C7.5842 2.07592 7.14506 1.38813 6.59334 0.832401C6.31353 0.550757 6.00804 0.297217 5.63277 0.136752Z" fill="white"/>
</svg>
