<svg width="48" height="52" viewBox="0 0 48 52" fill="none" xmlns="http://www.w3.org/2000/svg">
<path d="M35.9749 27.8281C29.3995 27.8281 24.0501 33.2498 24.0501 39.9141C24.0501 46.5783 29.3995 52 35.9749 52C42.6056 52 48 46.5783 48 39.9141C48 33.2498 42.6056 27.8281 35.9749 27.8281ZM39.6349 38.4519L35.6265 43.3269C35.3391 43.6763 34.9149 43.875 34.4719 43.875C34.4143 43.875 34.3565 43.8716 34.2985 43.8648C33.7946 43.8055 33.3542 43.4927 33.1273 43.0328L31.524 39.7828C31.1527 39.0304 31.4537 38.1152 32.1962 37.739C32.9386 37.3625 33.8416 37.6677 34.2129 38.4203L34.7884 39.5868L37.3254 36.5013C37.8569 35.855 38.8047 35.7678 39.4424 36.3062C40.0802 36.8448 40.1664 37.8054 39.6349 38.4519Z" fill="#1064C6"/>
<path d="M35.3271 8.67882L29.2282 2.28658C29.2253 2.28353 29.2223 2.28038 29.2194 2.27734C27.8151 0.83007 25.8612 0 23.8587 0H4.50939C2.02291 0 0 2.05024 0 4.57031V44.0781C0 46.5982 2.02291 48.6484 4.50939 48.6484H23.7886C22.0607 46.1792 21.0438 43.1649 21.0438 39.9141C21.0438 31.5698 27.7419 24.7812 35.9749 24.7812C36.4822 24.7812 36.9835 24.807 37.4781 24.8567V14.0136C37.4781 12.0058 36.7142 10.1116 35.3271 8.67882ZM15.9332 34.0234H7.91649C7.08636 34.0234 6.41336 33.3413 6.41336 32.5C6.41336 31.6587 7.08636 30.9766 7.91649 30.9766H15.9332C16.7633 30.9766 17.4363 31.6587 17.4363 32.5C17.4363 33.3413 16.7633 34.0234 15.9332 34.0234ZM15.9332 25.8984H7.91649C7.08636 25.8984 6.41336 25.2163 6.41336 24.375C6.41336 23.5337 7.08636 22.8516 7.91649 22.8516H15.9332C16.7633 22.8516 17.4363 23.5337 17.4363 24.375C17.4363 25.2163 16.7633 25.8984 15.9332 25.8984ZM15.9332 17.7734H7.91649C7.08636 17.7734 6.41336 17.0913 6.41336 16.25C6.41336 15.4087 7.08636 14.7266 7.91649 14.7266H15.9332C16.7633 14.7266 17.4363 15.4087 17.4363 16.25C17.4363 17.0913 16.7633 17.7734 15.9332 17.7734ZM25.5532 25.8984H23.9499C23.1198 25.8984 22.4468 25.2163 22.4468 24.375C22.4468 23.5337 23.1198 22.8516 23.9499 22.8516H25.5532C26.3834 22.8516 27.0564 23.5337 27.0564 24.375C27.0564 25.2163 26.3834 25.8984 25.5532 25.8984ZM25.5532 17.7734H23.9499C23.1198 17.7734 22.4468 17.0913 22.4468 16.25C22.4468 15.4087 23.1198 14.7266 23.9499 14.7266H25.5532C26.3834 14.7266 27.0564 15.4087 27.0564 16.25C27.0564 17.0913 26.3834 17.7734 25.5532 17.7734Z" fill="#1064C6"/>
</svg>
