<svg width="17" height="15" viewBox="0 0 17 15" fill="none" xmlns="http://www.w3.org/2000/svg">
<path fill-rule="evenodd" clip-rule="evenodd" d="M8.72411 11.258C8.1096 11.8638 7.50173 12.459 6.89909 13.0596C6.68839 13.2696 6.45137 13.3856 6.14915 13.3691C5.94332 13.3579 5.82778 13.2653 5.7647 13.0668C5.30352 11.6154 4.8348 10.1664 4.3757 8.71433C4.33096 8.57295 4.2636 8.50501 4.12329 8.46155C3.03585 8.12466 1.95058 7.78047 0.866699 7.43205C0.706217 7.38045 0.543729 7.31414 0.404489 7.22053C0.162149 7.05766 0.127564 6.7987 0.348867 6.6112C0.553348 6.43792 0.79577 6.29285 1.04413 6.19331C2.41819 5.64274 3.79926 5.11001 5.17782 4.57094C8.49401 3.27418 11.8103 1.97755 15.1263 0.680164C15.7619 0.431446 16.2559 0.776383 16.1963 1.4709C16.1571 1.92873 16.0394 2.38059 15.945 2.83257C15.2102 6.35058 14.4725 9.86796 13.7357 13.3856C13.7343 13.3923 13.7339 13.3993 13.7323 13.406C13.5522 14.2107 12.9751 14.4307 12.3171 13.9402C11.1749 13.0886 10.0356 12.2331 8.89487 11.3796C8.84092 11.3392 8.78514 11.3013 8.72411 11.258ZM6.20088 12.3647C6.21864 12.2821 6.23096 12.244 6.23456 12.2051C6.30705 11.414 6.3828 10.6232 6.44698 9.83138C6.46127 9.65566 6.513 9.52589 6.64716 9.40387C8.37813 7.82965 10.1037 6.24938 11.8307 4.67068C12.322 4.2216 12.8152 3.77477 13.3017 3.32046C13.3528 3.27277 13.3639 3.18111 13.3936 3.10986C13.3184 3.08829 13.2342 3.03363 13.17 3.05175C13.0217 3.09364 12.8723 3.15341 12.7422 3.23627C10.1745 4.87257 7.61018 6.51415 5.04242 8.15028C4.91178 8.23352 4.87449 8.30204 4.92688 8.4615C5.33347 9.69896 5.72827 10.9404 6.12733 12.1804C6.14296 12.229 6.16502 12.2754 6.20088 12.3647Z" fill="#1064C6"/>
</svg>
