<svg width="20" height="11" viewBox="0 0 20 11" fill="none" xmlns="http://www.w3.org/2000/svg">
<path fill-rule="evenodd" clip-rule="evenodd" d="M9.79344 10.7567H10.9412C10.9412 10.7567 11.2876 10.7206 11.4646 10.5397C11.6279 10.373 11.6225 10.0608 11.6225 10.0608C11.6225 10.0608 11.6001 8.59899 12.3147 8.38335C13.0191 8.17093 13.9241 9.79626 14.8827 10.4213C15.6081 10.8944 16.1593 10.7908 16.1593 10.7908L18.7232 10.7567C18.7232 10.7567 20.0642 10.6781 19.4283 9.67718C19.3761 9.59543 19.0574 8.93629 17.5219 7.5826C15.9139 6.16582 16.1294 6.39498 18.0663 3.94379C19.2452 2.4517 19.7171 1.54023 19.5693 1.15015C19.429 0.778096 18.5619 0.876582 18.5619 0.876582L15.6745 0.893318C15.6745 0.893318 15.4603 0.865639 15.3017 0.955756C15.1471 1.04394 15.0474 1.24992 15.0474 1.24992C15.0474 1.24992 14.5898 2.40471 13.9811 3.38699C12.6957 5.45969 12.1811 5.56912 11.971 5.44038C11.4822 5.14042 11.6042 4.23603 11.6042 3.59297C11.6042 1.584 11.9256 0.746555 10.9798 0.52963C10.6659 0.45818 10.4348 0.410546 9.63209 0.402822C8.60231 0.392523 7.73048 0.405397 7.23694 0.635196C6.90814 0.787752 6.65459 1.12827 6.80916 1.14758C6.99966 1.17204 7.43219 1.25829 7.66133 1.55439C7.95691 1.93675 7.94674 2.79479 7.94674 2.79479C7.94674 2.79479 8.1169 5.15908 7.54947 5.45325C7.16033 5.65409 6.6268 5.24341 5.48041 3.36253C4.89331 2.39956 4.44994 1.33489 4.44994 1.33489C4.44994 1.33489 4.36452 1.13599 4.21199 1.02914C4.02691 0.900398 3.76862 0.859202 3.76862 0.859202L1.02501 0.876582C1.02501 0.876582 0.613501 0.887524 0.462321 1.05746C0.327412 1.20873 0.451474 1.52156 0.451474 1.52156C0.451474 1.52156 2.59918 6.29263 5.03094 8.69683C7.26135 10.9015 9.79344 10.7567 9.79344 10.7567" fill="#1064C6"/>
</svg>
