<svg width="69" height="69" viewBox="0 0 69 69" fill="none" xmlns="http://www.w3.org/2000/svg">
<path d="M15.0938 34.5C15.0938 36.2863 16.5418 37.7344 18.3281 37.7344C20.1144 37.7344 21.5625 36.2863 21.5625 34.5C21.5625 32.7137 20.1144 31.2656 18.3281 31.2656C16.5418 31.2656 15.0938 32.7137 15.0938 34.5ZM15.0938 34.5H0M34.5 48.5156C36.2863 48.5156 37.7344 47.0675 37.7344 45.2813C37.7344 43.495 36.2863 42.0469 34.5 42.0469C32.7137 42.0469 31.2656 43.495 31.2656 45.2813C31.2656 47.0675 32.7137 48.5156 34.5 48.5156ZM34.5 48.5156V69M34.5 20.4844C32.7137 20.4844 31.2656 21.9325 31.2656 23.7188C31.2656 25.505 32.7137 26.9531 34.5 26.9531C36.2863 26.9531 37.7344 25.505 37.7344 23.7188C37.7344 21.9325 36.2863 20.4844 34.5 20.4844ZM34.5 20.4844V0M53.9063 34.5C53.9063 36.2863 52.4582 37.7344 50.6719 37.7344C48.8856 37.7344 47.4375 36.2863 47.4375 34.5C47.4375 32.7137 48.8856 31.2656 50.6719 31.2656C52.4582 31.2656 53.9063 32.7137 53.9063 34.5ZM53.9063 34.5H69M0 29.1094H2.15625M4.3125 29.1094H6.46875M8.625 29.1094H10.7813M0 39.8906H2.15625M4.3125 39.8906H6.46875M8.625 39.8906H10.7813M58.2188 29.1094H60.375M62.5313 29.1094H64.6875M66.8438 29.1094H69M58.2188 39.8906H60.375M62.5313 39.8906H64.6875M66.8438 39.8906H69M29.1094 69V66.8438M29.1094 64.6875V62.5313M29.1094 60.375V58.2188M29.1094 56.0625V53.9063M39.8906 69V66.8438M39.8906 64.6875V62.5313M39.8906 60.375V58.2188M39.8906 56.0625V53.9063M29.1094 15.0938V12.9375M29.1094 10.7813V8.625M29.1094 6.46875V4.3125M29.1094 2.15625V0M39.8906 15.0938V12.9375M39.8906 10.7813V8.625M39.8906 6.46875V4.3125M39.8906 2.15625V0M17.25 54.9844V69M0 51.75H14.0156M18.3281 51.75H16.1719M51.75 54.9844V69M69 51.75H54.9844M50.6719 51.75H52.8281M17.25 14.0156V0M0 17.25H14.0156M18.3281 17.25H16.1719M51.75 14.0156V0M69 17.25H54.9844M50.6719 17.25H52.8281M26.9531 45.2813C26.9531 47.0675 25.505 48.5156 23.7188 48.5156C21.9325 48.5156 20.4844 47.0675 20.4844 45.2813C20.4844 43.495 21.9325 42.0469 23.7188 42.0469C25.505 42.0469 26.9531 43.495 26.9531 45.2813ZM32.3438 34.5C32.3438 36.2863 30.8957 37.7344 29.1094 37.7344C27.3231 37.7344 25.875 36.2863 25.875 34.5C25.875 32.7137 27.3231 31.2656 29.1094 31.2656C30.8957 31.2656 32.3438 32.7137 32.3438 34.5ZM43.125 34.5C43.125 36.2863 41.6769 37.7344 39.8906 37.7344C38.1043 37.7344 36.6563 36.2863 36.6563 34.5C36.6563 32.7137 38.1043 31.2656 39.8906 31.2656C41.6769 31.2656 43.125 32.7137 43.125 34.5ZM48.5156 45.2813C48.5156 47.0675 47.0675 48.5156 45.2813 48.5156C43.495 48.5156 42.0469 47.0675 42.0469 45.2813C42.0469 43.495 43.495 42.0469 45.2813 42.0469C47.0675 42.0469 48.5156 43.495 48.5156 45.2813ZM26.9531 23.7188C26.9531 25.505 25.505 26.9531 23.7188 26.9531C21.9325 26.9531 20.4844 25.505 20.4844 23.7188C20.4844 21.9325 21.9325 20.4844 23.7188 20.4844C25.505 20.4844 26.9531 21.9325 26.9531 23.7188ZM48.5156 23.7188C48.5156 25.505 47.0675 26.9531 45.2813 26.9531C43.495 26.9531 42.0469 25.505 42.0469 23.7188C42.0469 21.9325 43.495 20.4844 45.2813 20.4844C47.0675 20.4844 48.5156 21.9325 48.5156 23.7188Z" stroke="white" stroke-width="3" stroke-miterlimit="10"/>
</svg>
